<svg width="16" height="17" viewBox="0 0 16 17" fill="none" xmlns="http://www.w3.org/2000/svg">
<path fill-rule="evenodd" clip-rule="evenodd" d="M11.9208 0.653325L11.9217 1.29051C14.3702 1.47401 15.9877 3.06952 15.9903 5.51629L16 12.6782C16.0035 15.3459 14.2509 16.9872 11.4416 16.9915L4.57945 17C1.78773 17.0034 0.0131703 15.3229 0.00965978 12.6476L5.91089e-06 5.56981C-0.00350459 3.1069 1.55691 1.51564 4.00549 1.3007L4.00461 0.66352C4.00373 0.289707 4.29335 0.00849767 4.6795 0.00849767C5.06566 0.0076481 5.35527 0.288008 5.35615 0.661821L5.35703 1.25652L10.5701 1.24973L10.5692 0.655024C10.5684 0.281211 10.858 0.0008515 11.2441 1.92567e-06C11.6215 -0.000847649 11.9199 0.279512 11.9208 0.653325ZM1.35245 5.83237L14.6397 5.81538V5.51802C14.6019 3.69144 13.6436 2.73312 11.9234 2.59039L11.9243 3.24456C11.9243 3.60988 11.6268 3.89958 11.2494 3.89958C10.8633 3.90043 10.5728 3.61158 10.5728 3.24626L10.5719 2.55811L5.3588 2.5649L5.35968 3.25221C5.35968 3.61837 5.07094 3.90723 4.68479 3.90723C4.29863 3.90808 4.00814 3.62007 4.00814 3.25391L4.00726 2.59973C2.29589 2.7637 1.34894 3.72542 1.35157 5.56815L1.35245 5.83237ZM10.8805 9.69367V9.70301C10.8893 10.0938 11.2228 10.3903 11.6274 10.3818C12.0223 10.3725 12.3374 10.0488 12.3286 9.65798C12.3101 9.28417 11.9933 8.97917 11.5993 8.98002C11.1956 8.98852 10.8796 9.30286 10.8805 9.69367ZM11.6049 13.5082C11.2012 13.4997 10.8756 13.1777 10.8747 12.7869C10.8659 12.3961 11.1898 12.0724 11.5935 12.0631H11.6022C12.0147 12.0631 12.3491 12.3851 12.3491 12.7844C12.35 13.1837 12.0165 13.5074 11.6049 13.5082ZM7.26514 9.7073C7.28269 10.0981 7.61707 10.4031 8.02077 10.3861C8.4157 10.3683 8.73077 10.0454 8.71322 9.65463C8.70357 9.27232 8.37884 8.97497 7.98391 8.97582C7.58021 8.99281 7.26426 9.3165 7.26514 9.7073ZM8.02334 13.4701C7.61963 13.4871 7.28613 13.1821 7.2677 12.7913C7.2677 12.4005 7.58277 12.0777 7.98647 12.0598C8.38141 12.059 8.70701 12.3563 8.71578 12.7378C8.73421 13.1294 8.41827 13.4523 8.02334 13.4701ZM3.64832 9.73696C3.66587 10.1278 4.00024 10.4336 4.40395 10.4158C4.79888 10.3988 5.11395 10.0751 5.09552 9.68428C5.08674 9.30197 4.76202 9.00462 4.36621 9.00547C3.96251 9.02246 3.64744 9.34615 3.64832 9.73696ZM4.40749 13.4743C4.00378 13.4921 3.67029 13.1863 3.65186 12.7955C3.65098 12.4046 3.96692 12.081 4.37063 12.064C4.76556 12.0631 5.09116 12.3605 5.09994 12.7428C5.11837 13.1336 4.8033 13.4573 4.40749 13.4743Z" fill="#A2A4C2"/>
</svg>
