<svg width="19" height="20" viewBox="0 0 19 20" fill="none" xmlns="http://www.w3.org/2000/svg">
<path opacity="0.4" d="M16.8238 7.4682C16.8238 7.4682 16.2808 14.2032 15.9658 17.0402C15.8158 18.3952 14.9788 19.1892 13.6078 19.2142C10.9988 19.2612 8.38681 19.2642 5.77881 19.2092C4.45981 19.1822 3.63681 18.3782 3.48981 17.0472C3.17281 14.1852 2.63281 7.4682 2.63281 7.4682" stroke="#E54623" stroke-width="1.5" stroke-linecap="round" stroke-linejoin="round"/>
<path d="M18.208 4.23969H1.25" stroke="#E54623" stroke-width="1.5" stroke-linecap="round" stroke-linejoin="round"/>
<path d="M14.9406 4.23967C14.1556 4.23967 13.4796 3.68467 13.3256 2.91567L13.0826 1.69967C12.9326 1.13867 12.4246 0.750671 11.8456 0.750671H7.61258C7.03358 0.750671 6.52558 1.13867 6.37558 1.69967L6.13258 2.91567C5.97858 3.68467 5.30258 4.23967 4.51758 4.23967" stroke="#E54623" stroke-width="1.5" stroke-linecap="round" stroke-linejoin="round"/>
</svg>
