<svg width="99" height="72" viewBox="0 0 99 72" fill="none" xmlns="http://www.w3.org/2000/svg">
<path d="M20.8623 52.1654L38.2568 35.5923L44.8962 41.9211L42.5785 44.1312L38.2209 39.9797L31.707 46.2488H35.9242L38.2478 43.9729L40.4609 46.0815L34.2158 52.034L20.8623 52.1654Z" fill="#00A651"/>
<path d="M58.5449 32.4055L38.9463 52.0041H44.4209L58.518 37.91L66.7075 46.0995H62.3918L58.521 42.2287L48.5843 52.1654H78.6363L58.5449 32.4055Z" fill="#00A651"/>
<path d="M0 69.3927L12.102 68.646V70.1393L0 69.3927Z" fill="black"/>
<path d="M86.8701 68.646L98.4465 69.3927L86.8701 70.1393V68.646Z" fill="black"/>
<path d="M87.6072 51.4665C87.4593 42.7082 84.2946 34.269 78.6471 27.5731L82.8822 22.0626L77.4375 26.2022C77.112 25.8498 76.7804 25.5033 76.4399 25.1628C69.5366 18.2505 60.2425 14.253 50.4767 13.9956L49.3119 0L48.0724 14.0076C38.4247 14.3447 29.2648 18.3317 22.4437 25.1628C22.0654 25.5411 21.696 25.9274 21.3356 26.3216L16.0014 22.2687L20.1021 27.7224C14.5353 34.392 11.4178 42.7654 11.2675 51.4516L0.115234 52.1505L12.0052 52.8972L12.7519 52.945V52.1505C12.7455 43.6924 15.6689 35.4931 21.025 28.9469L23.7638 32.5877C19.4648 38.2025 17.1384 45.0789 17.1453 52.1505V52.8972H81.7324V52.1505C81.7395 44.9847 79.351 38.0221 74.9466 32.3697L77.7093 28.7857C83.1531 35.3577 86.1291 43.6256 86.1228 52.1595V52.9539L86.8695 52.9061L98.7594 52.1595L87.6072 51.4665ZM22.5273 27.2386C22.8439 26.8951 23.1665 26.5576 23.498 26.2261C30.0069 19.7081 38.7339 15.8836 47.938 15.5158L47.5468 19.9301C39.3697 20.4044 31.6803 23.9757 26.0426 29.9176L22.5273 27.2386ZM18.6446 51.4307C18.8219 43.3818 22.1438 35.7222 27.899 30.0924C33.6541 24.4626 41.385 21.3102 49.4358 21.3102C57.4867 21.3102 65.2176 24.4626 70.9727 30.0924C76.7279 35.7222 80.0498 43.3818 80.2271 51.4307H18.6446ZM72.7096 29.8131C66.9965 23.8511 59.2119 20.3111 50.9635 19.9242L50.5962 15.5158C59.9243 15.8007 68.7915 19.6371 75.3857 26.241C75.6843 26.5397 75.9621 26.8383 76.2428 27.137L72.7096 29.8131Z" fill="black"/>
<path d="M18.3476 64.5482H15.337C15.2125 64.5558 15.0886 64.5256 14.9816 64.4616C14.9414 64.4349 14.9088 64.3984 14.8868 64.3555C14.8648 64.3126 14.8543 64.2648 14.8561 64.2167C14.8512 64.1379 14.8743 64.0599 14.9213 63.9965C14.9683 63.9331 15.0362 63.8884 15.113 63.8702L15.3579 63.7836C15.3889 63.7657 15.4147 63.74 15.4326 63.7089C15.4917 63.6111 15.5188 63.4973 15.5102 63.3834V56.9919C15.5188 56.8779 15.4917 56.7641 15.4326 56.6663C15.4149 56.6351 15.3891 56.6093 15.3579 56.5917L15.113 56.505C15.0362 56.4869 14.9683 56.4421 14.9213 56.3787C14.8743 56.3153 14.8512 56.2373 14.8561 56.1586C14.8543 56.1104 14.8648 56.0626 14.8868 56.0197C14.9088 55.9768 14.9414 55.9403 14.9816 55.9137C15.0886 55.8496 15.2125 55.8194 15.337 55.8271H18.5716C18.7105 55.8169 18.8496 55.8437 18.9748 55.9047C19.025 55.9293 19.0674 55.9676 19.0969 56.0151C19.1265 56.0627 19.1421 56.1175 19.142 56.1735C19.1457 56.2591 19.1169 56.3428 19.0616 56.4081C19.0062 56.4734 18.9283 56.5155 18.8433 56.5259C18.7424 56.5462 18.6427 56.5721 18.5447 56.6036C18.5078 56.6226 18.4752 56.649 18.4491 56.6812C18.3769 56.7861 18.3431 56.9127 18.3535 57.0397L18.3476 64.5482ZM18.8643 64.5482V63.8314C19.033 63.8034 19.1989 63.7604 19.36 63.7029C19.4866 63.653 19.6045 63.5834 19.7095 63.4969C19.9076 63.3341 20.0746 63.1368 20.2023 62.9145C20.3567 62.6555 20.479 62.3787 20.5667 62.0901C20.6044 61.9268 20.6679 61.7706 20.7548 61.6272C20.7851 61.5897 20.824 61.56 20.8682 61.5408C20.9124 61.5215 20.9606 61.5133 21.0087 61.5167C21.0619 61.5136 21.1148 61.5258 21.1614 61.5517C21.2079 61.5776 21.2461 61.6162 21.2715 61.663C21.3042 61.7528 21.3174 61.8485 21.3103 61.9438V64.5452L18.8643 64.5482Z" fill="#ED1C24"/>
<path d="M26.0204 64.5483H23.0039C22.8811 64.5539 22.7594 64.5227 22.6544 64.4587C22.6142 64.4321 22.5816 64.3956 22.5596 64.3527C22.5377 64.3098 22.5271 64.262 22.529 64.2138C22.524 64.135 22.5471 64.0571 22.5941 63.9937C22.6411 63.9303 22.709 63.8855 22.7858 63.8674L23.0307 63.7808C23.0618 63.7629 23.0875 63.7371 23.1054 63.7061C23.1645 63.6083 23.1917 63.4945 23.1831 63.3805V56.992C23.1917 56.8781 23.1645 56.7643 23.1054 56.6665C23.0878 56.6353 23.062 56.6094 23.0307 56.5918L22.7858 56.5052C22.709 56.487 22.6411 56.4423 22.5941 56.3789C22.5471 56.3155 22.524 56.2375 22.529 56.1587C22.5271 56.1106 22.5377 56.0628 22.5596 56.0199C22.5816 55.977 22.6142 55.9405 22.6544 55.9138C22.7614 55.8498 22.8853 55.8196 23.0098 55.8272H26.1936C26.3181 55.8196 26.442 55.8498 26.5491 55.9138C26.5892 55.9405 26.6219 55.977 26.6438 56.0199C26.6658 56.0628 26.6764 56.1106 26.6745 56.1587C26.6794 56.2375 26.6564 56.3155 26.6094 56.3789C26.5623 56.4423 26.4944 56.487 26.4176 56.5052L26.1727 56.5918C26.1414 56.6093 26.1156 56.6352 26.0981 56.6665C26.039 56.7643 26.0118 56.8781 26.0204 56.992V63.3835C26.0118 63.4975 26.039 63.6113 26.0981 63.7091C26.1158 63.7402 26.1416 63.766 26.1727 63.7837L26.4176 63.8704C26.4944 63.8885 26.5623 63.9333 26.6094 63.9967C26.6564 64.0601 26.6794 64.138 26.6745 64.2168C26.6764 64.265 26.6658 64.3128 26.6438 64.3557C26.6219 64.3986 26.5892 64.4351 26.5491 64.4617C26.442 64.5258 26.3181 64.556 26.1936 64.5483H26.0204Z" fill="#ED1C24"/>
<path d="M31.7688 55.824L33.0292 59.408L33.5848 57.4727V59.5932L32.1093 64.5451H31.7718L29.2929 57.1889C29.2427 57.0043 29.1507 56.8336 29.0241 56.6902C28.9389 56.6205 28.8349 56.5779 28.7254 56.5677C28.4486 56.508 28.3103 56.3756 28.3103 56.1705C28.3069 56.1206 28.316 56.0707 28.3369 56.0253C28.3577 55.9799 28.3897 55.9405 28.4297 55.9106C28.5298 55.8428 28.6496 55.8102 28.7702 55.818L31.7688 55.824ZM29.2899 58.7629L29.9679 60.6923V62.6157C29.9641 62.7564 29.971 62.8972 29.9888 63.0369C30.008 63.1347 30.0412 63.2292 30.0873 63.3176C30.1656 63.4921 30.2947 63.6388 30.4577 63.7387L30.6936 63.8911C30.8549 63.9886 30.9356 64.0971 30.9356 64.2166C30.9356 64.4336 30.7763 64.5421 30.4577 64.5421H28.8538C28.5353 64.5421 28.376 64.4356 28.376 64.2226C28.3727 64.1676 28.3874 64.1131 28.4178 64.0673C28.4645 64.0158 28.5202 63.9733 28.5821 63.9418C28.8164 63.8128 29.0083 63.6185 29.1345 63.3826C29.2606 63.1467 29.3157 62.8793 29.2929 62.6128L29.2899 58.7629ZM34.1224 55.824H37.1329C37.4515 55.824 37.6108 55.9345 37.6108 56.1555C37.6157 56.2343 37.5927 56.3123 37.5457 56.3757C37.4987 56.4391 37.4308 56.4838 37.3539 56.502L37.109 56.5886C37.0778 56.6062 37.052 56.6321 37.0344 56.6633C36.9753 56.7611 36.9481 56.8749 36.9567 56.9888V63.3833C36.9481 63.4973 36.9753 63.6111 37.0344 63.7089C37.0522 63.7399 37.078 63.7657 37.109 63.7835L37.3539 63.8701C37.4308 63.8883 37.4987 63.9331 37.5457 63.9965C37.5927 64.0599 37.6157 64.1378 37.6108 64.2166C37.6108 64.4376 37.4515 64.5481 37.1329 64.5481H33.9043C33.7578 64.5568 33.6116 64.527 33.4802 64.4615C33.4344 64.4359 33.3967 64.398 33.3714 64.3521C33.3461 64.3062 33.3341 64.254 33.3369 64.2017C33.3332 64.1161 33.3619 64.0324 33.4173 63.967C33.4726 63.9017 33.5506 63.8597 33.6355 63.8492L33.9342 63.7686C33.9705 63.7526 34.0015 63.7267 34.0238 63.6939C34.0964 63.587 34.1302 63.4584 34.1194 63.3296L34.1224 55.824Z" fill="#ED1C24"/>
<path d="M42.8506 64.5483H39.8341C39.7096 64.556 39.5857 64.5258 39.4786 64.4617C39.4385 64.4351 39.4058 64.3986 39.3839 64.3557C39.3619 64.3128 39.3513 64.265 39.3532 64.2168C39.3483 64.138 39.3713 64.0601 39.4183 63.9967C39.4653 63.9333 39.5332 63.8885 39.61 63.8704L39.855 63.7837C39.886 63.7659 39.9118 63.7401 39.9296 63.7091C39.9887 63.6113 40.0159 63.4975 40.0073 63.3835V56.992C40.0159 56.8781 39.9887 56.7643 39.9296 56.6665C39.912 56.6353 39.8862 56.6094 39.855 56.5918L39.61 56.5052C39.5332 56.487 39.4653 56.4423 39.4183 56.3789C39.3713 56.3155 39.3483 56.2375 39.3532 56.1587C39.3513 56.1106 39.3619 56.0628 39.3839 56.0199C39.4058 55.977 39.4385 55.9405 39.4786 55.9138C39.5857 55.8498 39.7096 55.8196 39.8341 55.8272H43.0179C43.1423 55.8196 43.2662 55.8498 43.3733 55.9138C43.4134 55.9405 43.4461 55.977 43.4681 56.0199C43.49 56.0628 43.5006 56.1106 43.4987 56.1587C43.5036 56.2375 43.4806 56.3155 43.4336 56.3789C43.3866 56.4423 43.3187 56.487 43.2419 56.5052L42.9969 56.5918C42.9656 56.6093 42.9398 56.6352 42.9223 56.6665C42.8632 56.7643 42.836 56.8781 42.8446 56.992V63.3835C42.836 63.4975 42.8632 63.6113 42.9223 63.7091C42.94 63.7402 42.9658 63.766 42.9969 63.7837L43.2419 63.8704C43.3187 63.8885 43.3866 63.9333 43.4336 63.9967C43.4806 64.0601 43.5036 64.138 43.4987 64.2168C43.5006 64.265 43.49 64.3128 43.4681 64.3557C43.4461 64.3986 43.4134 64.4351 43.3733 64.4617C43.2662 64.5258 43.1423 64.556 43.0179 64.5483H42.8506Z" fill="#ED1C24"/>
<path d="M44.9736 55.8241H46.6551V56.5977C46.465 56.7034 46.3048 56.8555 46.1892 57.0397C45.9974 57.3535 45.8714 57.7031 45.8189 58.0671L45.7561 58.4584C45.7435 58.5701 45.6953 58.6748 45.6188 58.7571C45.5839 58.7916 45.5423 58.8187 45.4966 58.8367C45.4509 58.8547 45.402 58.8632 45.3529 58.8616C45.3019 58.863 45.2512 58.8534 45.2042 58.8332C45.1573 58.8131 45.1153 58.7831 45.0811 58.7451C45.0093 58.6626 44.9719 58.5557 44.9766 58.4465L44.9736 55.8241ZM50.0092 55.8241V63.3327C49.9975 63.4597 50.0314 63.5867 50.1048 63.6911C50.1289 63.726 50.1619 63.7538 50.2003 63.7717L50.499 63.8524C50.584 63.8628 50.6619 63.9049 50.7172 63.9702C50.7726 64.0355 50.8013 64.1192 50.7977 64.2048C50.7978 64.2608 50.7822 64.3156 50.7526 64.3632C50.723 64.4107 50.6807 64.449 50.6304 64.4736C50.5032 64.5348 50.3621 64.5616 50.2212 64.5512H46.9359C46.7894 64.5599 46.6431 64.5301 46.5118 64.4646C46.466 64.439 46.4283 64.4011 46.403 64.3552C46.3776 64.3093 46.3656 64.2572 46.3684 64.2048C46.3648 64.1192 46.3935 64.0355 46.4488 63.9702C46.5042 63.9049 46.5821 63.8628 46.6671 63.8524L46.9657 63.7717C47.0031 63.7545 47.0343 63.7264 47.0554 63.6911C47.1287 63.5867 47.1626 63.4597 47.1509 63.3327V55.8241H50.0092ZM52.2193 55.8241V58.4375C52.224 58.5468 52.1866 58.6537 52.1148 58.7362C52.0806 58.7741 52.0386 58.8042 51.9917 58.8243C51.9448 58.8444 51.894 58.8541 51.843 58.8526C51.7939 58.8544 51.745 58.846 51.6992 58.828C51.6535 58.81 51.612 58.7828 51.5772 58.7481C51.5005 58.6659 51.4523 58.5612 51.4398 58.4494L51.3771 58.0582C51.3246 57.6941 51.1986 57.3446 51.0067 57.0308C50.8889 56.8484 50.7291 56.6968 50.5408 56.5887V55.8152L52.2193 55.8241Z" fill="#ED1C24"/>
<path d="M57.1913 64.5482H54.1807C54.0562 64.5558 53.9323 64.5256 53.8253 64.4616C53.7851 64.4349 53.7525 64.3984 53.7305 64.3555C53.7086 64.3126 53.698 64.2648 53.6999 64.2167C53.6949 64.1379 53.718 64.0599 53.765 63.9965C53.812 63.9331 53.8799 63.8884 53.9567 63.8702L54.2016 63.7836C54.2327 63.7657 54.2584 63.74 54.2763 63.7089C54.3354 63.6111 54.3626 63.4973 54.354 63.3834V56.9919C54.3626 56.8779 54.3354 56.7641 54.2763 56.6663C54.2587 56.6351 54.2329 56.6093 54.2016 56.5917L53.9567 56.505C53.8799 56.4869 53.812 56.4421 53.765 56.3787C53.718 56.3153 53.6949 56.2373 53.6999 56.1586C53.698 56.1104 53.7086 56.0626 53.7305 56.0197C53.7525 55.9768 53.7851 55.9403 53.8253 55.9137C53.9323 55.8496 54.0562 55.8194 54.1807 55.8271H57.4153C57.5542 55.8169 57.6933 55.8437 57.8185 55.9047C57.8688 55.9293 57.9111 55.9676 57.9407 56.0151C57.9703 56.0627 57.9859 56.1175 57.9858 56.1735C57.9894 56.2591 57.9607 56.3428 57.9053 56.4081C57.85 56.4734 57.7721 56.5155 57.6871 56.5259C57.5862 56.5462 57.4864 56.5721 57.3884 56.6036C57.3515 56.6226 57.319 56.649 57.2929 56.6812C57.2207 56.7861 57.1869 56.9127 57.1973 57.0397L57.1913 64.5482ZM57.708 64.5482V63.8314C57.8768 63.8035 58.0427 63.7605 58.2038 63.7029C58.3303 63.653 58.4483 63.5834 58.5532 63.4969C58.7513 63.3341 58.9183 63.1368 59.046 62.9145C59.2004 62.6554 59.3227 62.3786 59.4104 62.0901C59.4482 61.9268 59.5117 61.7706 59.5986 61.6272C59.6288 61.5897 59.6677 61.56 59.7119 61.5408C59.7561 61.5215 59.8043 61.5133 59.8524 61.5167C59.9056 61.5136 59.9586 61.5258 60.0051 61.5517C60.0516 61.5776 60.0899 61.6162 60.1153 61.663C60.148 61.7528 60.1613 61.8485 60.1541 61.9438V64.5452L57.708 64.5482Z" fill="#ED1C24"/>
<path d="M64.8555 55.8241V64.5482H61.848C61.7192 64.5574 61.5907 64.5261 61.4806 64.4586C61.4404 64.432 61.4078 64.3955 61.3858 64.3526C61.3638 64.3097 61.3533 64.2618 61.3551 64.2137C61.3502 64.1349 61.3733 64.0569 61.4203 63.9935C61.4673 63.9301 61.5352 63.8854 61.612 63.8672L61.8569 63.7806C61.888 63.7628 61.9137 63.737 61.9316 63.706C61.9907 63.6082 62.0178 63.4944 62.0092 63.3804V56.9919C62.0178 56.8779 61.9907 56.7641 61.9316 56.6663C61.9139 56.6351 61.8881 56.6093 61.8569 56.5917L61.612 56.5051C61.5352 56.4869 61.4673 56.4422 61.4203 56.3788C61.3733 56.3154 61.3502 56.2374 61.3551 56.1586C61.3533 56.1104 61.3638 56.0626 61.3858 56.0197C61.4078 55.9768 61.4404 55.9403 61.4806 55.9137C61.5876 55.8496 61.7115 55.8194 61.836 55.8271H64.8555V55.8241ZM65.3932 60.4774V59.7367C65.601 59.6462 65.788 59.5141 65.9427 59.3484C66.0733 59.1846 66.1634 58.9922 66.2055 58.7869C66.2226 58.6661 66.2687 58.5514 66.3399 58.4524C66.3701 58.4206 66.4068 58.3958 66.4476 58.3798C66.4884 58.3638 66.5322 58.357 66.5759 58.3598C66.6332 58.3568 66.6902 58.3705 66.74 58.3991C66.7898 58.4277 66.8303 58.47 66.8566 58.5211C66.8959 58.6424 66.9111 58.7702 66.9014 58.8974V61.3315C66.9127 61.4732 66.8902 61.6155 66.8357 61.7467C66.8092 61.7862 66.7723 61.8177 66.7292 61.8377C66.686 61.8577 66.6381 61.8655 66.5908 61.8602C66.5483 61.8625 66.5058 61.8557 66.4661 61.8402C66.4265 61.8248 66.3906 61.801 66.3608 61.7706C66.2923 61.6835 66.2462 61.581 66.2264 61.4719C66.1797 61.2262 66.0776 60.9943 65.9278 60.7939C65.7896 60.632 65.6016 60.5206 65.3932 60.4774ZM65.426 55.8241H68.0005V58.088C68.0116 58.1937 67.984 58.2998 67.9229 58.3867C67.8612 58.4387 67.7847 58.4699 67.7042 58.4758C67.6237 58.4817 67.5435 58.462 67.4749 58.4195C67.4159 58.3517 67.3739 58.2709 67.3524 58.1836C67.2272 57.746 66.9795 57.3533 66.6386 57.0516C66.2885 56.7772 65.8638 56.6149 65.42 56.5857L65.426 55.8241ZM65.426 64.5482V63.8613C65.6614 63.8297 65.8921 63.7695 66.1129 63.6821C66.3122 63.5935 66.4966 63.4746 66.6595 63.3296C66.8287 63.1883 66.9765 63.0234 67.0985 62.8398C67.2231 62.6289 67.3233 62.4044 67.3972 62.1708C67.4251 62.0686 67.4751 61.9738 67.5436 61.893C67.6018 61.8415 67.6779 61.8147 67.7556 61.8184C67.8024 61.8134 67.8497 61.8203 67.8931 61.8386C67.9364 61.8569 67.9744 61.8859 68.0035 61.9229C68.0602 62.0366 68.085 62.1636 68.0752 62.2903V64.5452L65.426 64.5482Z" fill="#ED1C24"/>
<path d="M72.6889 55.6509V56.3946C72.4624 56.4478 72.2553 56.5637 72.0916 56.7291C71.9523 56.8812 71.8774 57.0814 71.8825 57.2876C71.8788 57.4875 71.9396 57.6833 72.0557 57.8461C72.208 58.0369 72.3995 58.1928 72.6172 58.3031C72.7964 58.4006 73.2016 58.5878 73.8328 58.8645C74.1424 58.9922 74.4419 59.1429 74.7288 59.3155C74.9482 59.4571 75.1489 59.6256 75.3262 59.8173C75.5703 60.066 75.7627 60.3606 75.8924 60.6841C76.0221 61.0075 76.0865 61.3534 76.0818 61.7019C76.086 62.2316 75.9451 62.7524 75.6745 63.2077C75.4039 63.6631 75.0139 64.0358 74.5466 64.2854C74.2806 64.4257 73.9989 64.5339 73.7074 64.6079C73.4288 64.6837 73.1418 64.7238 72.8532 64.7274V63.9987C73.1489 63.9462 73.4258 63.8175 73.6566 63.6253C73.74 63.5401 73.8048 63.4385 73.8469 63.3269C73.8891 63.2154 73.9077 63.0963 73.9015 62.9772C73.8992 62.8305 73.8637 62.6863 73.7974 62.5554C73.7312 62.4245 73.6361 62.3103 73.5192 62.2216C73.218 62.0088 72.8921 61.8333 72.5486 61.6989C72.0249 61.4699 71.6655 61.3057 71.4704 61.2061C71.2748 61.1065 71.088 60.9906 70.9118 60.8597C70.5364 60.6109 70.2301 60.2713 70.0212 59.8723C69.8123 59.4734 69.7077 59.0281 69.7172 58.5778C69.7124 58.1129 69.8146 57.653 70.0158 57.2338C70.2044 56.8359 70.4924 56.4933 70.8521 56.2393C71.3966 55.8737 72.0334 55.6697 72.6889 55.6509ZM72.3574 63.9897V64.7185C71.9548 64.7054 71.5601 64.6034 71.2016 64.4198C71.0443 64.3481 70.9357 64.3013 70.876 64.2794C70.8206 64.2585 70.762 64.2474 70.7028 64.2466C70.6364 64.2423 70.5702 64.2568 70.5116 64.2884C70.4358 64.3497 70.3676 64.4199 70.3085 64.4974C70.2806 64.5381 70.2437 64.5719 70.2008 64.5962C70.1578 64.6205 70.1099 64.6347 70.0606 64.6378C69.8217 64.6378 69.7022 64.4546 69.7022 64.0883V61.7706C69.7001 61.6622 69.736 61.5565 69.8038 61.4719C69.8342 61.4324 69.8731 61.4001 69.9175 61.3774C69.9619 61.3547 70.0108 61.3421 70.0606 61.3405C70.1012 61.3363 70.1422 61.3414 70.1804 61.3554C70.2187 61.3693 70.2533 61.3918 70.2817 61.4212C70.3492 61.5092 70.3961 61.6113 70.419 61.7198C70.514 62.0806 70.6566 62.4271 70.8432 62.7502C71.015 63.0535 71.2338 63.3277 71.4913 63.5626C71.7343 63.7838 72.0343 63.9328 72.3574 63.9927V63.9897ZM73.1937 56.3856V55.6837C73.4183 55.6958 73.6412 55.7288 73.8597 55.7823C74.1318 55.8642 74.3982 55.964 74.6571 56.081C74.7241 56.1108 74.796 56.128 74.8692 56.1317C74.9037 56.1342 74.9383 56.1278 74.9697 56.1132C75.001 56.0986 75.0281 56.0762 75.0484 56.0481L75.1888 55.8629C75.2151 55.8207 75.2516 55.7858 75.2949 55.7613C75.3382 55.7368 75.3869 55.7235 75.4367 55.7226C75.4864 55.7188 75.5361 55.7284 75.5808 55.7505C75.6255 55.7726 75.6634 55.8063 75.6905 55.848C75.7528 55.9696 75.7807 56.1059 75.7712 56.2422V58.3508C75.7747 58.4599 75.7374 58.5664 75.6666 58.6495C75.633 58.6883 75.5912 58.7192 75.5442 58.7398C75.4972 58.7605 75.4462 58.7705 75.3949 58.769C75.3091 58.7684 75.2259 58.7389 75.1589 58.6854C75.1199 58.6502 75.0884 58.6076 75.0663 58.5599C75.0347 58.4812 75.0126 58.399 75.0006 58.315C74.948 58.0905 74.8667 57.8736 74.7587 57.6699C74.6489 57.4552 74.5135 57.2546 74.3555 57.0725C74.0491 56.7301 73.6426 56.4928 73.1937 56.3946V56.3856Z" fill="#ED1C24"/>
<path d="M80.7153 55.6509V56.3946C80.4888 56.4479 80.2818 56.5638 80.118 56.7291C79.9787 56.8812 79.9037 57.0814 79.9089 57.2876C79.9052 57.4875 79.9659 57.6833 80.0821 57.8461C80.2343 58.037 80.4258 58.1928 80.6436 58.3031C80.8228 58.4006 81.228 58.5878 81.8592 58.8645C82.1688 58.9921 82.4683 59.1429 82.7552 59.3155C82.9746 59.4571 83.1753 59.6256 83.3525 59.8173C83.596 60.0664 83.7878 60.3611 83.9169 60.6845C84.0461 61.0079 84.1101 61.3537 84.1052 61.7019C84.1097 62.2317 83.969 62.7526 83.6983 63.208C83.4277 63.6635 83.0375 64.0361 82.57 64.2854C82.304 64.4257 82.0223 64.534 81.7308 64.6079C81.4522 64.6836 81.1652 64.7238 80.8766 64.7274V63.9987C81.1723 63.9462 81.4492 63.8175 81.68 63.6253C81.7634 63.5401 81.8282 63.4385 81.8703 63.3269C81.9125 63.2154 81.9311 63.0963 81.9249 62.9772C81.9226 62.8305 81.887 62.6863 81.8208 62.5554C81.7546 62.4245 81.6594 62.3103 81.5426 62.2216C81.2413 62.0088 80.9154 61.8333 80.5719 61.6989C80.0483 61.4699 79.6889 61.3057 79.4937 61.2061C79.2981 61.1066 79.1113 60.9907 78.9352 60.8597C78.5596 60.6111 78.2531 60.2715 78.0442 59.8725C77.8353 59.4735 77.7308 59.0281 77.7406 58.5778C77.7356 58.1128 77.8378 57.653 78.0392 57.2338C78.2277 56.8358 78.5157 56.4932 78.8755 56.2393C79.4209 55.8733 80.0588 55.6693 80.7153 55.6509ZM80.3838 63.9897V64.7185C79.9812 64.7053 79.5865 64.6033 79.2279 64.4198C79.0706 64.3481 78.9621 64.3013 78.9024 64.2794C78.847 64.2586 78.7884 64.2474 78.7291 64.2466C78.6628 64.2423 78.5965 64.2568 78.538 64.2884C78.4622 64.3497 78.394 64.4199 78.3349 64.4974C78.3069 64.5381 78.2701 64.5719 78.2271 64.5962C78.1842 64.6205 78.1363 64.6347 78.087 64.6378C77.8481 64.6378 77.7286 64.4546 77.7286 64.0883V61.7706C77.7264 61.6622 77.7624 61.5565 77.8302 61.4719C77.8606 61.4324 77.8994 61.4001 77.9438 61.3774C77.9882 61.3547 78.0371 61.3421 78.087 61.3405C78.1276 61.3363 78.1685 61.3414 78.2068 61.3554C78.2451 61.3693 78.2797 61.3918 78.308 61.4212C78.3758 61.5091 78.4228 61.6112 78.4454 61.7198C78.5405 62.0806 78.6831 62.4271 78.8695 62.7502C79.0415 63.0534 79.2602 63.3276 79.5176 63.5626C79.7599 63.7833 80.0587 63.9322 80.3808 63.9927L80.3838 63.9897ZM81.22 56.3856V55.6837C81.4446 55.6958 81.6676 55.7288 81.8861 55.7823C82.1581 55.8643 82.4245 55.9641 82.6835 56.081C82.7505 56.1108 82.8224 56.128 82.8956 56.1317C82.9301 56.1342 82.9647 56.1278 82.996 56.1132C83.0274 56.0986 83.0545 56.0762 83.0748 56.0481L83.2151 55.8629C83.2415 55.8207 83.278 55.7858 83.3213 55.7613C83.3646 55.7368 83.4133 55.7235 83.463 55.7226C83.5122 55.7193 83.5614 55.7292 83.6055 55.7513C83.6496 55.7733 83.687 55.8067 83.7139 55.848C83.7764 55.9696 83.8043 56.1059 83.7946 56.2422V58.3508C83.7981 58.4599 83.7608 58.5664 83.69 58.6495C83.6564 58.6883 83.6146 58.7192 83.5676 58.7398C83.5206 58.7605 83.4696 58.7705 83.4182 58.769C83.3324 58.7686 83.2492 58.7391 83.1823 58.6854C83.1432 58.6503 83.1117 58.6076 83.0897 58.5599C83.0584 58.4811 83.0363 58.3989 83.024 58.315C82.9714 58.0905 82.8901 57.8736 82.7821 57.6699C82.6724 57.4551 82.537 57.2545 82.3789 57.0725C82.0731 56.7308 81.6678 56.4936 81.22 56.3946V56.3856Z" fill="#ED1C24"/>
<path d="M18.1736 69.5359V69.5837C18.1694 69.729 18.1544 69.8737 18.1288 70.0168C18.1028 70.1683 18.0668 70.3179 18.0213 70.4648C17.974 70.6152 17.9182 70.7628 17.854 70.9068C17.7902 71.0506 17.7174 71.1903 17.636 71.3249C17.5575 71.4558 17.4707 71.5815 17.3762 71.7013C17.2858 71.8096 17.1858 71.9096 17.0775 71.9999L16.7071 71.7879C16.7675 71.6853 16.8204 71.5785 16.8654 71.4683C16.9132 71.3528 16.956 71.2324 16.9939 71.1069C17.0317 70.9815 17.0645 70.8521 17.0924 70.7186C17.1203 70.5852 17.1432 70.4538 17.1611 70.3244C17.179 70.195 17.193 70.0666 17.2029 69.9391C17.2029 69.8117 17.2029 69.6912 17.2029 69.5777C17.2029 69.4642 17.2029 69.3647 17.2029 69.2791C17.2029 69.1656 17.196 69.0501 17.182 68.9326C17.1702 68.8169 17.1502 68.7021 17.1223 68.5891C17.0965 68.4836 17.0542 68.3828 16.9968 68.2905C16.9428 68.2039 16.8691 68.1313 16.7818 68.0784C16.6828 68.0219 16.5701 67.994 16.4563 67.9978C16.3535 67.995 16.2514 68.0154 16.1576 68.0575C16.0779 68.0943 16.0068 68.1472 15.9485 68.2128C15.89 68.28 15.8435 68.3568 15.8111 68.4398C15.7762 68.5278 15.7492 68.6188 15.7305 68.7116C15.7115 68.8102 15.6995 68.91 15.6946 69.0103C15.6946 69.1078 15.6946 69.1994 15.6946 69.285V69.978H16.7639V70.3871H15.6946V71.2563H14.709V69.4374C14.7072 69.1899 14.7497 68.9441 14.8345 68.7116C14.9109 68.4909 15.0307 68.2878 15.1869 68.1143C15.3401 67.9482 15.5262 67.8159 15.7335 67.726C15.958 67.63 16.2002 67.5822 16.4443 67.5856C16.6135 67.5838 16.7819 67.609 16.9431 67.6603C17.094 67.7087 17.2369 67.7792 17.3672 67.8694C17.4947 67.9587 17.6093 68.0653 17.7077 68.1859C17.8078 68.3072 17.8921 68.4407 17.9586 68.5832C18.0261 68.7294 18.0772 68.8826 18.1109 69.0401C18.1515 69.2023 18.1726 69.3687 18.1736 69.5359Z" fill="#231F20"/>
<path d="M22.866 69.4553C22.8674 69.7839 22.7752 70.1061 22.6002 70.3842C22.5169 70.5164 22.4165 70.6369 22.3015 70.7426C22.1853 70.8494 22.0558 70.9407 21.9162 71.0144C21.6254 71.168 21.3013 71.248 20.9724 71.2474H19.3984V67.6633H20.9754C21.1415 67.6629 21.307 67.683 21.4682 67.7231C21.6239 67.7615 21.7743 67.8187 21.9162 67.8933C22.0556 67.9661 22.1851 68.0564 22.3015 68.1621C22.4166 68.2666 22.5171 68.3861 22.6002 68.5175C22.6848 68.6521 22.7502 68.7979 22.7943 68.9506C22.8429 69.1144 22.8671 69.2845 22.866 69.4553ZM21.8654 69.4553C21.8661 69.2688 21.8419 69.083 21.7938 68.9028C21.7501 68.7368 21.6751 68.5807 21.5727 68.4429C21.4725 68.3094 21.3427 68.201 21.1934 68.1263C21.0221 68.0443 20.8337 68.0044 20.6439 68.0098H20.384V70.9009H20.6439C20.833 70.9049 21.0203 70.864 21.1904 70.7814C21.3394 70.7063 21.4692 70.598 21.5698 70.4648C21.6718 70.3269 21.7468 70.1708 21.7908 70.0049C21.8405 69.8259 21.8656 69.6411 21.8654 69.4553Z" fill="#231F20"/>
<path d="M25.8014 71.2474H24.9054L23.5703 67.6633H24.5768L25.5684 70.5425L26.4644 67.6633H27.0617L25.8014 71.2474Z" fill="#231F20"/>
<path d="M30.6437 71.2474H28.0752V67.6633H30.6437V68.1203H29.0608V69.2373H30.2824V69.6913H29.0608V70.7934H30.6437V71.2474Z" fill="#231F20"/>
<path d="M32.2861 71.2474H31.8291V67.6633H32.4712L34.6455 70.1184V67.6633H35.0995V71.2474H34.4574L32.2861 68.7923V71.2474Z" fill="#231F20"/>
<path d="M38.136 71.2473H37.1504V68.1292H36.1768V67.6722H39.1097V68.1292H38.136V71.2473Z" fill="#231F20"/>
<path d="M41.1713 67.6723C41.1275 67.8057 41.0887 67.9441 41.0548 68.0874C41.021 68.2308 40.9941 68.3741 40.9742 68.5175C40.9523 68.6609 40.9364 68.8022 40.9264 68.9416C40.9165 69.081 40.9115 69.2124 40.9115 69.3359C40.9115 69.4255 40.9115 69.53 40.9115 69.6345C40.9115 69.7391 40.9115 69.8645 40.9324 69.981C40.9441 70.0967 40.964 70.2115 40.9921 70.3245C41.0177 70.4301 41.0601 70.5309 41.1176 70.6231C41.1708 70.7093 41.2434 70.782 41.3296 70.8352C41.4282 70.8926 41.5412 70.9206 41.6552 70.9158C41.758 70.9188 41.8601 70.8984 41.9538 70.8561C42.034 70.8188 42.1053 70.7648 42.1629 70.6978C42.2211 70.6304 42.2676 70.5537 42.3003 70.4708C42.3351 70.3828 42.3621 70.2918 42.3809 70.199C42.4 70.1004 42.412 70.0006 42.4168 69.9003C42.4168 69.8028 42.4168 69.7102 42.4168 69.6226V67.6514H43.4024V69.4703C43.4043 69.7177 43.3618 69.9635 43.2769 70.196C43.2012 70.4163 43.0824 70.6194 42.9275 70.7934C42.7747 70.9598 42.5884 71.0922 42.3809 71.1816C42.1564 71.2775 41.9142 71.3253 41.6701 71.322C41.5009 71.3237 41.3326 71.2985 41.1713 71.2473C41.0206 71.1985 40.8777 71.1281 40.7472 71.0383C40.6159 70.9527 40.4973 70.8492 40.3948 70.7306C40.2947 70.6093 40.2104 70.4759 40.1439 70.3334C40.0763 70.1872 40.0252 70.034 39.9916 69.8765C39.9565 69.7166 39.9404 69.5532 39.9438 69.3896V69.3388C39.9442 69.2048 39.9552 69.071 39.9766 68.9386C40.0023 68.7944 40.0362 68.6518 40.0782 68.5115C40.1208 68.3674 40.1716 68.2257 40.2305 68.0874C40.2898 67.9494 40.3566 67.8148 40.4306 67.6842L41.1713 67.6723Z" fill="#231F20"/>
<path d="M45.72 71.2474H44.7344V67.6633H46.4935C46.6547 67.6635 46.8152 67.6835 46.9714 67.7231C47.1181 67.7588 47.2569 67.8216 47.3806 67.9082C47.4994 67.9918 47.5966 68.1023 47.6643 68.2308C47.7379 68.3801 47.7738 68.5452 47.7688 68.7117C47.7697 68.8552 47.738 68.9972 47.6763 69.1268C47.6145 69.2559 47.5306 69.3731 47.4284 69.4733C47.2169 69.679 46.9465 69.8137 46.6548 69.8585C46.7185 69.968 46.7862 70.0676 46.8579 70.1572C46.9296 70.2468 47.0013 70.3384 47.073 70.432C47.1446 70.5176 47.2163 70.5963 47.288 70.6679C47.3597 70.7396 47.4274 70.8053 47.4911 70.8651C47.6325 70.9962 47.7833 71.117 47.9421 71.2264H46.7116C46.6049 71.1236 46.5098 71.0094 46.4278 70.886C46.3402 70.7529 46.2633 70.6131 46.1978 70.4678C46.1157 70.2836 46.0566 70.09 46.0216 69.8914H45.723L45.72 71.2474ZM46.7683 68.7176C46.7764 68.6222 46.765 68.526 46.7347 68.4351C46.7044 68.3443 46.6559 68.2605 46.5921 68.189C46.446 68.0654 46.2572 68.0043 46.0664 68.0187H45.72V69.5718H46.0664C46.1773 69.5748 46.2871 69.5501 46.386 69.5001C46.4724 69.4554 46.5471 69.3909 46.604 69.312C46.6623 69.2299 46.7049 69.1378 46.7295 69.0402C46.7558 68.9357 46.7688 68.8283 46.7683 68.7206V68.7176Z" fill="#231F20"/>
<path d="M51.55 71.2474H48.9814V67.6633H51.55V68.1203H49.9671V69.2373H51.1886V69.6913H49.9671V70.7934H51.55V71.2474Z" fill="#231F20"/>
<path d="M57.9985 68.5594L57.5744 68.7386C57.5437 68.6337 57.4996 68.5333 57.4429 68.4399C57.3892 68.3529 57.3216 68.2752 57.2428 68.21C57.1643 68.1456 57.0754 68.0951 56.98 68.0606C56.7656 67.9843 56.5314 67.9843 56.317 68.0606C56.2154 68.1 56.1215 68.1566 56.0392 68.2279C55.9562 68.3 55.8838 68.3834 55.8242 68.4758C55.7623 68.5698 55.7103 68.6699 55.6688 68.7744C55.6271 68.8816 55.596 68.9926 55.5763 69.106C55.5567 69.2164 55.5467 69.3283 55.5464 69.4405C55.5461 69.6154 55.5661 69.7898 55.6061 69.9602C55.6448 70.1279 55.7125 70.2876 55.8062 70.432C55.8934 70.5685 56.011 70.683 56.1497 70.7666C56.3048 70.8558 56.4816 70.9002 56.6604 70.895C56.7624 70.8952 56.8636 70.877 56.9591 70.8412C57.052 70.8065 57.1387 70.7571 57.2159 70.6949C57.294 70.6315 57.3625 70.557 57.419 70.4739C57.4777 70.3888 57.5249 70.2964 57.5594 70.1991L57.9895 70.3693C57.9299 70.5213 57.8428 70.661 57.7326 70.7815C57.625 70.9005 57.499 71.0013 57.3593 71.0802C57.2186 71.1588 57.0679 71.2181 56.9113 71.2564C56.753 71.2955 56.5905 71.3156 56.4275 71.3161C56.2571 71.3162 56.0874 71.2941 55.9227 71.2504C55.765 71.2085 55.6134 71.1463 55.4717 71.0652C55.3324 70.9832 55.2048 70.8828 55.0924 70.7666C54.8616 70.5399 54.6965 70.2551 54.6145 69.9422C54.5269 69.6114 54.5269 69.2635 54.6145 68.9327C54.6565 68.776 54.7188 68.6254 54.7997 68.4847C54.9605 68.2087 55.1913 67.98 55.4687 67.8217C55.6103 67.7405 55.7619 67.6782 55.9197 67.6365C56.0844 67.5927 56.2541 67.5706 56.4245 67.5708C56.5916 67.5705 56.758 67.5905 56.9203 67.6305C57.0783 67.6686 57.2302 67.729 57.3713 67.8097C57.5099 67.8889 57.6349 67.9897 57.7416 68.1084C57.8551 68.241 57.9423 68.3941 57.9985 68.5594Z" fill="#231F20"/>
<path d="M62.5564 69.5359V69.5837C62.5521 69.729 62.5371 69.8737 62.5116 70.0168C62.4856 70.1683 62.4496 70.318 62.404 70.4648C62.3569 70.6152 62.3011 70.7628 62.2368 70.9068C62.173 71.0506 62.1002 71.1903 62.0187 71.3249C61.9403 71.4558 61.8535 71.5816 61.7589 71.7013C61.6685 71.8096 61.5686 71.9096 61.4602 71.9999L61.0899 71.7879C61.1502 71.6853 61.2031 71.5785 61.2482 71.4683C61.296 71.3528 61.3388 71.2324 61.3766 71.1069C61.4154 70.9815 61.4483 70.853 61.4752 70.7186C61.5021 70.5842 61.5259 70.4558 61.5439 70.3244C61.5618 70.193 61.5767 70.0646 61.5857 69.9391C61.5946 69.8137 61.5857 69.6912 61.5857 69.5777C61.5857 69.4642 61.5857 69.3866 61.5857 69.2791C61.5857 69.1715 61.5857 69.0491 61.5648 68.9326C61.553 68.8169 61.533 68.7021 61.505 68.5891C61.4792 68.4836 61.4369 68.3828 61.3796 68.2905C61.3254 68.204 61.2518 68.1314 61.1646 68.0784C61.0665 68.0224 60.9549 67.9945 60.842 67.9978C60.7392 67.995 60.6371 68.0154 60.5433 68.0575C60.4637 68.0943 60.3925 68.1472 60.3343 68.2128C60.2758 68.28 60.2293 68.3568 60.1969 68.4398C60.162 68.5278 60.135 68.6188 60.1162 68.7116C60.0971 68.8102 60.0851 68.91 60.0804 69.0103C60.0804 69.1078 60.0804 69.1994 60.0804 69.285V69.9779H61.1496V70.3871H60.0804V71.2562H59.0948V69.4374C59.0929 69.1899 59.1354 68.9441 59.2202 68.7116C59.2965 68.4909 59.4164 68.2878 59.5726 68.1142C59.7258 67.9482 59.912 67.8159 60.1192 67.726C60.3438 67.6301 60.5859 67.5823 60.83 67.5856C60.9992 67.5838 61.1676 67.609 61.3288 67.6603C61.4797 67.7087 61.6226 67.7792 61.7529 67.8693C61.8804 67.9588 61.995 68.0653 62.0934 68.1859C62.1934 68.3073 62.2777 68.4407 62.3443 68.5832C62.4118 68.7294 62.4629 68.8826 62.4966 69.0401C62.5363 69.2024 62.5563 69.3689 62.5564 69.5359Z" fill="#231F20"/>
<path d="M64.4357 68.5802L64.1579 71.2474H63.5605L64.1579 67.6633H65.0539L65.8902 70.3932L66.7384 67.6633H67.6344L68.1421 71.2474H67.1565L66.8578 68.6489L66.159 71.2474H65.263L64.4357 68.5802Z" fill="#231F20"/>
<path d="M70.3362 71.2474H69.3506V67.6634H71.283C71.4456 67.6622 71.6075 67.6843 71.7638 67.7291C71.9108 67.7707 72.0486 67.8396 72.17 67.9322C72.2878 68.0234 72.3837 68.1397 72.4508 68.2727C72.5688 68.5252 72.5891 68.8125 72.5075 69.0791C72.4759 69.1789 72.4296 69.2736 72.3701 69.3598C72.3115 69.4449 72.2423 69.5222 72.164 69.5898C72.0849 69.6573 71.9976 69.7145 71.9042 69.76C71.809 69.8069 71.7088 69.843 71.6055 69.8675C71.5008 69.8919 71.3935 69.9039 71.286 69.9034H70.3392L70.3362 71.2474ZM71.5577 68.7595C71.569 68.5626 71.5062 68.3687 71.3815 68.2159C71.3131 68.1465 71.2303 68.0929 71.139 68.0589C71.0477 68.0248 70.95 68.0112 70.8529 68.0188H70.3332V69.5719H70.8529C70.9635 69.5755 71.0735 69.5552 71.1754 69.5121C71.2611 69.4742 71.336 69.4158 71.3935 69.3419C71.452 69.2655 71.4946 69.1781 71.5189 69.085C71.5469 68.9798 71.561 68.8714 71.5607 68.7625L71.5577 68.7595Z" fill="#231F20"/>
<path d="M74.6223 71.2474H73.6367V67.6633H74.6223V71.2474Z" fill="#231F20"/>
<path d="M76.4736 71.2474H76.0166V67.6633H76.6587L78.833 70.1333V67.6783H79.287V71.2623H78.6449L76.4736 68.8072V71.2474Z" fill="#231F20"/>
<path d="M83.9197 68.5593L83.4956 68.7385C83.4639 68.6336 83.4188 68.5332 83.3612 68.4399C83.3076 68.3528 83.24 68.2751 83.1611 68.2099C83.0826 68.1456 82.9937 68.0951 82.8983 68.0606C82.7957 68.0241 82.6876 68.0059 82.5787 68.0068C82.4623 68.0058 82.3467 68.027 82.2382 68.0695C82.137 68.1095 82.0431 68.166 81.9605 68.2368C81.8772 68.3086 81.8048 68.3921 81.7454 68.4847C81.6843 68.5786 81.6332 68.6787 81.5931 68.7833C81.5519 68.8907 81.5209 69.0017 81.5005 69.1149C81.4804 69.2252 81.4704 69.3372 81.4707 69.4494C81.4704 69.6243 81.4904 69.7987 81.5304 69.9691C81.5677 70.1344 81.6334 70.292 81.7245 70.435C81.8118 70.5714 81.9293 70.6858 82.068 70.7695C82.2231 70.8587 82.3999 70.9031 82.5787 70.8979C82.6704 70.9032 82.7611 70.8769 82.8356 70.8232C82.8703 70.7909 82.8968 70.7507 82.9129 70.706C82.929 70.6614 82.9343 70.6135 82.9282 70.5664V69.4673H83.9138V71.2444H83.6151L83.4419 70.9636C83.2842 71.0833 83.1061 71.1734 82.9162 71.2294C82.7225 71.2879 82.5212 71.3171 82.3189 71.316C82.1485 71.3162 81.9788 71.2941 81.8141 71.2503C81.6564 71.2085 81.5048 71.1462 81.3631 71.0652C81.2238 70.9832 81.0962 70.8827 80.9838 70.7665C80.8682 70.6558 80.7678 70.5302 80.6852 70.3932C80.604 70.2526 80.5417 70.102 80.5 69.9452C80.4128 69.6143 80.4128 69.2665 80.5 68.9357C80.5419 68.7789 80.6042 68.6283 80.6852 68.4877C80.8458 68.2116 81.0766 67.9828 81.3542 67.8246C81.4958 67.7434 81.6474 67.6812 81.8052 67.6394C81.9698 67.5955 82.1395 67.5735 82.3099 67.5737C82.477 67.5734 82.6435 67.5935 82.8057 67.6335C82.9637 67.6716 83.1156 67.7319 83.2567 67.8127C83.3953 67.8918 83.5203 67.9926 83.627 68.1113C83.7528 68.2402 83.8522 68.3924 83.9197 68.5593Z" fill="#231F20"/>
</svg>
