<svg width="71" height="52" viewBox="0 0 71 52" fill="none" xmlns="http://www.w3.org/2000/svg">
<path fill-rule="evenodd" clip-rule="evenodd" d="M13.5265 46.3736V45.8589C13.6766 45.8312 13.7955 45.8007 13.8827 45.767C13.9701 45.7333 14.0534 45.6842 14.1332 45.62C14.2623 45.5188 14.38 45.3792 14.4871 45.2013C14.5942 45.0239 14.6821 44.8262 14.7495 44.6086C14.7984 44.4401 14.8433 44.3291 14.885 44.2752C14.926 44.2217 14.9867 44.1949 15.0662 44.1949C15.1521 44.1949 15.215 44.2303 15.2545 44.3007C15.2732 44.3343 15.2824 44.4016 15.2824 44.503V46.3736H13.5265ZM13.1542 46.3736H11.1088H10.9898C10.8792 46.3736 10.794 46.3528 10.7345 46.3113C10.6744 46.2701 10.6445 46.2113 10.6445 46.1346C10.6445 46.009 10.7059 45.9264 10.8283 45.8862C10.9294 45.8527 10.9883 45.8321 11.0055 45.8242C11.022 45.8166 11.0398 45.799 11.0583 45.7713C11.0948 45.7224 11.1133 45.6443 11.1133 45.5369V40.9361C11.1133 40.8288 11.0948 40.7506 11.0583 40.7014C11.0398 40.674 11.022 40.6566 11.0055 40.6488C10.9883 40.6413 10.9294 40.6205 10.8283 40.5868C10.7059 40.5466 10.6445 40.4642 10.6445 40.3386C10.6445 40.2619 10.6744 40.2029 10.7345 40.1616C10.794 40.1202 10.8792 40.0994 10.9898 40.0994H11.1088H13.1588H13.315C13.4498 40.0994 13.5462 40.118 13.6044 40.1547C13.6845 40.2037 13.724 40.268 13.724 40.3478C13.724 40.4826 13.6508 40.567 13.5033 40.6005C13.3843 40.628 13.3134 40.6467 13.2924 40.6555C13.2705 40.6647 13.2474 40.6834 13.2228 40.7107C13.1774 40.7658 13.1542 40.8519 13.1542 40.9681V46.3736Z" fill="white"/>
<path fill-rule="evenodd" clip-rule="evenodd" d="M18.6725 46.3736H16.6224H16.5032C16.3929 46.3736 16.3076 46.3528 16.2481 46.3113C16.188 46.2701 16.1582 46.2113 16.1582 46.1346C16.1582 46.009 16.2198 45.9264 16.342 45.8862C16.4431 45.8527 16.5021 45.8321 16.5194 45.8242C16.5357 45.8166 16.5535 45.799 16.5721 45.7713C16.6085 45.7224 16.6269 45.6443 16.6269 45.5369V40.9361C16.6269 40.8288 16.6085 40.7506 16.5721 40.7014C16.5535 40.674 16.5357 40.6566 16.5194 40.6488C16.5021 40.6413 16.4431 40.6205 16.342 40.5868C16.2198 40.5466 16.1582 40.4642 16.1582 40.3386C16.1582 40.2619 16.188 40.2029 16.2481 40.1616C16.3076 40.1202 16.3929 40.0994 16.5032 40.0994H16.6224H18.6725H18.7921C18.9025 40.0994 18.9873 40.1202 19.0474 40.1616C19.1069 40.2029 19.1367 40.2619 19.1367 40.3386C19.1367 40.4642 19.0751 40.5466 18.9529 40.5868C18.8516 40.6205 18.793 40.6413 18.7756 40.6488C18.7591 40.6566 18.7412 40.674 18.7234 40.7014C18.6863 40.7506 18.668 40.8288 18.668 40.9361V45.5369C18.668 45.6443 18.6863 45.7224 18.7234 45.7713C18.7412 45.799 18.7591 45.8166 18.7756 45.8242C18.793 45.8321 18.8516 45.8527 18.9529 45.8862C19.0751 45.9264 19.1367 46.009 19.1367 46.1346C19.1367 46.2113 19.1069 46.2701 19.0474 46.3113C18.9873 46.3528 18.9025 46.3736 18.7921 46.3736H18.6725Z" fill="white"/>
<path fill-rule="evenodd" clip-rule="evenodd" d="M24.4989 40.0996H26.5391H26.6635C26.8934 40.0996 27.0085 40.1793 27.0085 40.3386C27.0085 40.4642 26.9471 40.5469 26.824 40.587C26.7236 40.6207 26.6641 40.6414 26.6476 40.6491C26.6304 40.6566 26.6132 40.6742 26.5948 40.7017C26.5576 40.7509 26.5391 40.8288 26.5391 40.9364V45.5372C26.5391 45.6445 26.5576 45.7224 26.5948 45.7716C26.6132 45.7993 26.6304 45.8167 26.6476 45.8244C26.6641 45.8323 26.7236 45.8528 26.824 45.8865C26.9471 45.9266 27.0085 46.0091 27.0085 46.1347C27.0085 46.2942 26.8934 46.3739 26.6635 46.3739H26.5391H24.4944H24.3423C24.2073 46.3739 24.1055 46.353 24.0368 46.3116C23.9681 46.2704 23.9329 46.2081 23.9329 46.1255C23.9329 45.9906 24.007 45.9062 24.1538 45.8728C24.2734 45.8423 24.3434 45.8232 24.3653 45.8154C24.3866 45.8079 24.4083 45.79 24.4296 45.7626C24.4757 45.7074 24.4989 45.62 24.4989 45.5005V40.0996ZM21.0239 42.2139L21.5107 43.6021V44.9857C21.5107 45.1266 21.5164 45.2277 21.5272 45.2889C21.5377 45.3504 21.5616 45.4177 21.5985 45.4912C21.6627 45.626 21.7514 45.7272 21.865 45.7946L22.0348 45.9051C22.1512 45.9754 22.2093 46.0535 22.2093 46.1394C22.2093 46.2957 22.0945 46.3739 21.865 46.3739H20.7113C20.4813 46.3739 20.3662 46.2971 20.3662 46.1439C20.3662 46.0952 20.3761 46.0574 20.3967 46.0314C20.4165 46.0052 20.4553 45.9754 20.5135 45.9419C20.8534 45.7581 21.0239 45.4392 21.0239 44.9857V42.2139ZM22.8072 40.0996L23.7128 42.6784L24.1128 41.2853V42.8115L23.051 46.3739H22.8072L21.0239 41.0835C20.9625 40.9055 20.8979 40.7863 20.8309 40.7249C20.7905 40.6852 20.7218 40.6557 20.6241 40.6375C20.4244 40.5946 20.3252 40.4997 20.3252 40.3526C20.3252 40.2729 20.3536 40.2109 20.4098 40.1664C20.4667 40.122 20.5488 40.0996 20.6559 40.0996H22.8072Z" fill="white"/>
<path fill-rule="evenodd" clip-rule="evenodd" d="M30.7749 46.3736H28.7248H28.6058C28.4954 46.3736 28.41 46.3528 28.3505 46.3113C28.2904 46.2701 28.2607 46.2113 28.2607 46.1346C28.2607 46.009 28.3222 45.9264 28.4443 45.8862C28.5457 45.8527 28.6045 45.8321 28.6217 45.8242C28.6382 45.8166 28.6561 45.799 28.6745 45.7713C28.7108 45.7224 28.7295 45.6443 28.7295 45.5369V40.9361C28.7295 40.8288 28.7108 40.7506 28.6745 40.7014C28.6561 40.674 28.6382 40.6566 28.6217 40.6488C28.6045 40.6413 28.5457 40.6205 28.4443 40.5868C28.3222 40.5466 28.2607 40.4642 28.2607 40.3386C28.2607 40.2619 28.2904 40.2029 28.3505 40.1616C28.41 40.1202 28.4954 40.0994 28.6058 40.0994H28.7248H30.7749H30.8947C31.0051 40.0994 31.0897 40.1202 31.1498 40.1616C31.2093 40.2029 31.2391 40.2619 31.2391 40.3386C31.2391 40.4642 31.1775 40.5466 31.0553 40.5868C30.954 40.6205 30.8953 40.6413 30.8779 40.6488C30.8616 40.6566 30.8436 40.674 30.8258 40.7014C30.7888 40.7506 30.7704 40.8288 30.7704 40.9361V45.5369C30.7704 45.6443 30.7888 45.7224 30.8258 45.7713C30.8436 45.799 30.8616 45.8166 30.8779 45.8242C30.8953 45.8321 30.954 45.8527 31.0553 45.8862C31.1775 45.9264 31.2391 46.009 31.2391 46.1346C31.2391 46.2113 31.2093 46.2701 31.1498 46.3113C31.0897 46.3528 31.0051 46.3736 30.8947 46.3736H30.7749Z" fill="white"/>
<path fill-rule="evenodd" clip-rule="evenodd" d="M37.516 40.0996V41.9795C37.516 42.0686 37.4909 42.1405 37.44 42.1957C37.3898 42.2507 37.3242 42.2784 37.2448 42.2784C37.1681 42.2784 37.1048 42.253 37.0539 42.2024C37.0037 42.1519 36.9704 42.0824 36.9554 41.9934L36.909 41.7133C36.8634 41.4279 36.7742 41.1814 36.6428 40.9731C36.5599 40.8445 36.4482 40.7386 36.3076 40.6557V40.0996H37.516ZM35.926 40.0996V45.5005C35.926 45.62 35.9483 45.7057 35.9947 45.7581C36.0192 45.7888 36.0424 45.8079 36.0635 45.8154C36.0845 45.8232 36.1554 45.8423 36.2751 45.8728C36.4218 45.9062 36.4959 45.9906 36.4959 46.1255C36.4959 46.2053 36.4555 46.2698 36.376 46.3185C36.3179 46.3553 36.2195 46.3739 36.0819 46.3739H35.9299H33.8804H33.7284C33.5936 46.3739 33.4918 46.353 33.4231 46.3116C33.3541 46.2704 33.3198 46.2081 33.3198 46.1255C33.3198 45.9906 33.3932 45.9062 33.5399 45.8728C33.6597 45.8423 33.7303 45.8232 33.7516 45.8154C33.7726 45.8079 33.7945 45.7888 33.8155 45.7581C33.8619 45.7057 33.8851 45.62 33.8851 45.5005V40.0996H35.926ZM32.3037 40.0996H33.5128V40.6557C33.3687 40.7386 33.2564 40.8445 33.177 40.9731C33.0453 41.1814 32.9562 41.4279 32.9105 41.7133L32.8641 41.9934C32.8491 42.0824 32.8161 42.1519 32.7658 42.2024C32.7149 42.253 32.6514 42.2784 32.5747 42.2784C32.4955 42.2784 32.43 42.2507 32.3797 42.1957C32.3287 42.1405 32.3037 42.0686 32.3037 41.9795V40.0996Z" fill="white"/>
<path fill-rule="evenodd" clip-rule="evenodd" d="M41.462 46.3736V45.8589C41.6121 45.8312 41.7311 45.8007 41.8184 45.767C41.9056 45.7333 41.9889 45.6842 42.069 45.62C42.1979 45.5188 42.3155 45.3792 42.4227 45.2013C42.5298 45.0239 42.6176 44.8262 42.685 44.6086C42.734 44.4401 42.7789 44.3291 42.8208 44.2752C42.8617 44.2217 42.9225 44.1949 43.0018 44.1949C43.0877 44.1949 43.1505 44.2303 43.1903 44.3007C43.2087 44.3343 43.218 44.4016 43.218 44.503V46.3736H41.462ZM41.0899 46.3736H39.0443H38.9254C38.8148 46.3736 38.7295 46.3528 38.67 46.3113C38.6099 46.2701 38.5801 46.2113 38.5801 46.1346C38.5801 46.009 38.6417 45.9264 38.7639 45.8862C38.865 45.8527 38.9238 45.8321 38.941 45.8242C38.9575 45.8166 38.9754 45.799 38.9941 45.7713C39.0304 45.7224 39.0488 45.6443 39.0488 45.5369V40.9361C39.0488 40.8288 39.0304 40.7506 38.9941 40.7014C38.9754 40.674 38.9575 40.6566 38.941 40.6488C38.9238 40.6413 38.865 40.6205 38.7639 40.5868C38.6417 40.5466 38.5801 40.4642 38.5801 40.3386C38.5801 40.2619 38.6099 40.2029 38.67 40.1616C38.7295 40.1202 38.8148 40.0994 38.9254 40.0994H39.0443H41.0944H41.2505C41.3853 40.0994 41.4817 40.118 41.5399 40.1547C41.62 40.2037 41.6595 40.268 41.6595 40.3478C41.6595 40.4826 41.5863 40.567 41.4388 40.6005C41.3198 40.628 41.249 40.6467 41.228 40.6555C41.2063 40.6647 41.1831 40.6834 41.1586 40.7107C41.1129 40.7658 41.0899 40.8519 41.0899 40.9681V46.3736Z" fill="white"/>
<path fill-rule="evenodd" clip-rule="evenodd" d="M47.0172 46.3736V45.877C47.2162 45.8467 47.3809 45.8038 47.511 45.7486C47.6413 45.6934 47.7723 45.609 47.9044 45.4956C48.036 45.3823 48.1412 45.2652 48.2191 45.144C48.2971 45.0228 48.3711 44.8629 48.442 44.6636C48.4755 44.5657 48.5107 44.4989 48.5477 44.4639C48.5848 44.4285 48.635 44.4111 48.699 44.4111C48.7849 44.4111 48.8446 44.4362 48.8789 44.4867C48.912 44.5374 48.9292 44.6256 48.9292 44.7513V46.3736H47.0172ZM47.0126 40.0994H48.865V41.7265C48.865 41.8217 48.8465 41.8905 48.8096 41.9335C48.7731 41.9764 48.7149 41.9979 48.635 41.9979C48.5676 41.9979 48.5187 41.9842 48.4882 41.9562C48.4573 41.9288 48.4281 41.8723 48.4001 41.7864C48.284 41.4311 48.1133 41.1596 47.8878 40.9728C47.663 40.786 47.3708 40.674 47.0126 40.6372V40.0994ZM46.9894 43.4458V42.9126C47.1672 42.8265 47.2988 42.7331 47.3847 42.6319C47.4706 42.531 47.5335 42.3962 47.5733 42.2277C47.5977 42.1113 47.6299 42.0305 47.6697 41.9863C47.7094 41.9421 47.7663 41.9195 47.8397 41.9195C47.9383 41.9195 48.0057 41.958 48.042 42.0346C48.0639 42.0744 48.0744 42.1648 48.0744 42.3056V44.057C48.0744 44.2011 48.0585 44.3007 48.0261 44.3559C47.9937 44.4111 47.9348 44.4384 47.8489 44.4384C47.7787 44.4384 47.7234 44.4169 47.6836 44.374C47.6439 44.3315 47.6115 44.2593 47.587 44.1582C47.5348 43.9467 47.4607 43.7843 47.3643 43.6709C47.2677 43.5576 47.1428 43.4825 46.9894 43.4458ZM46.6034 40.0994V46.3736H44.5578H44.4388C44.3284 46.3736 44.2432 46.3528 44.1835 46.3113C44.1234 46.2701 44.0938 46.2113 44.0938 46.1346C44.0938 46.009 44.1552 45.9264 44.2775 45.8862C44.3785 45.8527 44.4375 45.8321 44.4547 45.8242C44.4712 45.8166 44.4891 45.799 44.5075 45.7713C44.5438 45.7224 44.5623 45.6443 44.5623 45.5369V40.9361C44.5623 40.8288 44.5438 40.7506 44.5075 40.7014C44.4891 40.674 44.4712 40.6566 44.4547 40.6488C44.4375 40.6413 44.3785 40.6205 44.2775 40.5868C44.1552 40.5466 44.0938 40.4642 44.0938 40.3386C44.0938 40.2619 44.1234 40.2029 44.1835 40.1616C44.2432 40.1202 44.3284 40.0994 44.4388 40.0994H44.5578H46.6034Z" fill="white"/>
<path fill-rule="evenodd" clip-rule="evenodd" d="M52.6003 40.5042V39.9985C52.7841 40.0106 52.9434 40.0344 53.0782 40.0698C53.213 40.1048 53.4048 40.1746 53.6528 40.2788C53.7142 40.3035 53.7651 40.3155 53.8048 40.3155C53.863 40.3155 53.9059 40.2955 53.9337 40.256L54.035 40.1225C54.0837 40.0553 54.1434 40.0215 54.2141 40.0215C54.2967 40.0215 54.3569 40.0514 54.3951 40.1111C54.4335 40.1705 54.4526 40.2652 54.4526 40.3939V41.9104C54.4526 41.9993 54.4275 42.0721 54.3766 42.129C54.3266 42.1859 54.2609 42.2138 54.1817 42.2138C54.1202 42.2138 54.064 42.194 54.0118 42.1541C53.9839 42.1296 53.9616 42.0998 53.945 42.0645C53.9278 42.0294 53.9119 41.9703 53.8967 41.8877C53.863 41.7376 53.8048 41.5827 53.7222 41.4234C53.6395 41.2641 53.5431 41.1215 53.4325 40.9957C53.2118 40.7477 52.9348 40.5839 52.6003 40.5042ZM51.9986 45.9737V46.4976C51.7474 46.4976 51.4698 46.4259 51.1662 46.2819C51.0532 46.2296 50.9753 46.1957 50.9321 46.1807C50.8892 46.1655 50.8475 46.1575 50.8078 46.1575C50.7464 46.1575 50.7008 46.1676 50.6698 46.1876C50.6393 46.2075 50.5905 46.2573 50.5229 46.337C50.4675 46.4044 50.408 46.4381 50.3438 46.4381C50.1718 46.4381 50.0859 46.3063 50.0859 46.0428V44.3698C50.0859 44.2839 50.1104 44.2111 50.16 44.1511C50.2089 44.0915 50.2704 44.0601 50.3438 44.0571C50.4112 44.0541 50.464 44.0732 50.5025 44.1145C50.5409 44.1559 50.5733 44.2287 50.601 44.3328C50.6717 44.5965 50.7735 44.8432 50.9063 45.073C51.0399 45.3027 51.1954 45.4972 51.3732 45.6568C51.5543 45.8219 51.7626 45.9277 51.9986 45.9737ZM52.2374 39.9756V40.5042C52.0476 40.5562 51.9026 40.6367 51.803 40.7455C51.7032 40.8542 51.6536 40.9882 51.6536 41.1475C51.6536 41.3008 51.6952 41.4346 51.7777 41.5498C51.8603 41.6648 51.9954 41.7743 52.1824 41.8784C52.3106 41.9488 52.6022 42.0836 53.0559 42.2829C53.3314 42.4023 53.545 42.5103 53.697 42.6069C53.8484 42.7033 53.9919 42.8238 54.1267 42.9679C54.4879 43.3477 54.6689 43.7997 54.6689 44.3236C54.6689 44.7189 54.5711 45.0805 54.3747 45.4084C54.1784 45.7364 53.9086 45.9939 53.5654 46.1807C53.3816 46.2788 53.18 46.3561 52.9612 46.4128C52.7424 46.4695 52.5376 46.4976 52.3477 46.4976V45.9737C52.614 45.9095 52.8064 45.8195 52.9249 45.7048C53.0426 45.59 53.1014 45.4346 53.1014 45.2385C53.1014 45.0333 53.0095 44.8524 52.8257 44.6959C52.7033 44.595 52.4699 44.4694 52.1268 44.3193C51.75 44.1535 51.4921 44.0356 51.3525 43.9652C51.2132 43.8948 51.079 43.8117 50.95 43.7168C50.3743 43.3063 50.0859 42.7592 50.0859 42.0759C50.0859 41.7266 50.1581 41.4043 50.3021 41.1084C50.4462 40.813 50.6472 40.5746 50.9044 40.3939C51.2628 40.1424 51.707 40.003 52.2374 39.9756Z" fill="white"/>
<path fill-rule="evenodd" clip-rule="evenodd" d="M58.3706 40.5042V39.9985C58.5544 40.0106 58.7137 40.0344 58.8486 40.0698C58.9834 40.1048 59.1753 40.1746 59.4231 40.2788C59.4845 40.3035 59.5354 40.3155 59.5752 40.3155C59.6333 40.3155 59.6765 40.2955 59.7039 40.256L59.8053 40.1225C59.8543 40.0553 59.9137 40.0215 59.9844 40.0215C60.0671 40.0215 60.1272 40.0514 60.1656 40.1111C60.204 40.1705 60.2231 40.2652 60.2231 40.3939V41.9104C60.2231 41.9993 60.1981 42.0721 60.1469 42.129C60.0969 42.1859 60.0314 42.2138 59.952 42.2138C59.8906 42.2138 59.8343 42.194 59.7821 42.1541C59.7544 42.1296 59.7319 42.0998 59.7153 42.0645C59.6982 42.0294 59.6823 41.9703 59.667 41.8877C59.6333 41.7376 59.5752 41.5827 59.4924 41.4234C59.4098 41.2641 59.3134 41.1215 59.2028 40.9957C58.9821 40.7477 58.7051 40.5839 58.3706 40.5042ZM57.7689 45.9737V46.4976C57.5177 46.4976 57.2401 46.4259 56.9367 46.2819C56.8235 46.2296 56.7456 46.1957 56.7024 46.1807C56.6597 46.1655 56.6178 46.1575 56.5783 46.1575C56.5167 46.1575 56.4712 46.1676 56.44 46.1876C56.4098 46.2075 56.3608 46.2573 56.2934 46.337C56.2378 46.4044 56.1783 46.4381 56.1141 46.4381C55.9423 46.4381 55.8564 46.3063 55.8564 46.0428V44.3698C55.8564 44.2839 55.8807 44.2111 55.9303 44.1511C55.9793 44.0915 56.0407 44.0601 56.1141 44.0571C56.1815 44.0541 56.2345 44.0732 56.2728 44.1145C56.3112 44.1559 56.3437 44.2287 56.3714 44.3328C56.4422 44.5965 56.544 44.8432 56.6767 45.073C56.8102 45.3027 56.9657 45.4972 57.1434 45.6568C57.3247 45.8219 57.533 45.9277 57.7689 45.9737ZM58.0077 39.9756V40.5042C57.8179 40.5562 57.6732 40.6367 57.5733 40.7455C57.4735 40.8542 57.4239 40.9882 57.4239 41.1475C57.4239 41.3008 57.4655 41.4346 57.5482 41.5498C57.6309 41.6648 57.7657 41.7743 57.9528 41.8784C58.0809 41.9488 58.3725 42.0836 58.8262 42.2829C59.1019 42.4023 59.3153 42.5103 59.4674 42.6069C59.6187 42.7033 59.7621 42.8238 59.8972 42.9679C60.2581 43.3477 60.4394 43.7997 60.4394 44.3236C60.4394 44.7189 60.3414 45.0805 60.145 45.4084C59.9487 45.7364 59.6791 45.9939 59.336 46.1807C59.1521 46.2788 58.9505 46.3561 58.7315 46.4128C58.5127 46.4695 58.3079 46.4976 58.1181 46.4976V45.9737C58.3845 45.9095 58.5769 45.8195 58.6952 45.7048C58.8129 45.59 58.8717 45.4346 58.8717 45.2385C58.8717 45.0333 58.7798 44.8524 58.596 44.6959C58.4736 44.595 58.2405 44.4694 57.8971 44.3193C57.5205 44.1535 57.2626 44.0356 57.123 43.9652C56.9835 43.8948 56.8493 43.8117 56.7205 43.7168C56.1446 43.3063 55.8564 42.7592 55.8564 42.0759C55.8564 41.7266 55.9284 41.4043 56.0725 41.1084C56.2168 40.813 56.4177 40.5746 56.675 40.3939C57.0331 40.1424 57.4773 40.003 58.0077 39.9756Z" fill="white"/>
<path fill-rule="evenodd" clip-rule="evenodd" d="M0 49.8825L8.69973 49.3457V50.4193L0 49.8825Z" fill="white"/>
<path fill-rule="evenodd" clip-rule="evenodd" d="M62.4531 49.3457L70.7745 49.8825L62.4531 50.4193V49.3457Z" fill="white"/>
<path fill-rule="evenodd" clip-rule="evenodd" d="M13.0438 49.9903V50.0231C13.0416 50.12 13.0313 50.2202 13.0133 50.3239C12.9953 50.4277 12.9705 50.5314 12.9379 50.6351C12.9061 50.7388 12.8675 50.8414 12.8226 50.9428C12.7775 51.0441 12.7271 51.1412 12.671 51.2339C12.615 51.3269 12.5549 51.4137 12.4907 51.4952C12.4265 51.576 12.358 51.6479 12.2867 51.7101L12.0295 51.5616C12.0696 51.4933 12.1061 51.4195 12.1388 51.3395C12.1718 51.2595 12.2016 51.1755 12.2279 51.0879C12.2543 51.0005 12.277 50.9106 12.2964 50.8182C12.315 50.7259 12.3309 50.6344 12.3434 50.5434C12.3565 50.4526 12.3662 50.3626 12.3724 50.2748C12.3786 50.1863 12.382 50.1026 12.382 50.0231C12.382 49.9609 12.3814 49.8904 12.3808 49.8114C12.3801 49.7324 12.3758 49.6521 12.367 49.5703C12.3586 49.4883 12.344 49.4086 12.3247 49.3311C12.3053 49.2529 12.2764 49.1838 12.2375 49.1226C12.1989 49.0614 12.1491 49.0127 12.0889 48.9756C12.0282 48.9388 11.9534 48.9204 11.8635 48.9204C11.7834 48.9204 11.7155 48.9339 11.6582 48.9611C11.6015 48.9882 11.5532 49.0242 11.5131 49.0696C11.4736 49.1153 11.4418 49.1681 11.4184 49.228C11.3948 49.288 11.3761 49.3511 11.363 49.4174C11.3499 49.4835 11.3409 49.5503 11.3366 49.618C11.3325 49.6852 11.3312 49.749 11.3312 49.8089V50.2911H12.0758V50.5762H11.3312V51.1813H10.6445V49.916C10.6445 49.7352 10.6735 49.5669 10.7311 49.4112C10.7884 49.2557 10.87 49.1205 10.9758 49.0062C11.0808 48.8914 11.2081 48.8014 11.3561 48.7365C11.5041 48.6711 11.6691 48.6387 11.851 48.6387C11.9743 48.6387 12.0896 48.6563 12.1976 48.6914C12.3053 48.7264 12.4035 48.7748 12.4928 48.8366C12.5813 48.8983 12.6601 48.9715 12.7299 49.0558C12.7996 49.1409 12.8578 49.2332 12.9049 49.3334C12.951 49.4338 12.9864 49.5398 13.0114 49.6515C13.0348 49.7631 13.0459 49.8763 13.0438 49.9903Z" fill="white"/>
<path fill-rule="evenodd" clip-rule="evenodd" d="M15.5461 49.9333C15.5461 49.7984 15.5296 49.6702 15.4969 49.5487C15.4639 49.4272 15.4134 49.3204 15.3443 49.2281C15.2751 49.1358 15.1867 49.0628 15.0802 49.0085C14.9735 48.9541 14.8463 48.9273 14.6969 48.9273H14.5159V50.9394H14.6969C14.8438 50.9394 14.97 50.912 15.0765 50.8569C15.1832 50.8024 15.2717 50.7287 15.3415 50.6356C15.4113 50.543 15.4624 50.4363 15.4963 50.3152C15.5296 50.1943 15.5461 50.067 15.5461 49.9333ZM16.2431 49.9333C16.2431 50.0541 16.2263 50.169 16.1948 50.2783C16.1622 50.3867 16.1166 50.4874 16.0585 50.5797C16.0005 50.6721 15.9311 50.7554 15.8504 50.8292C15.7694 50.904 15.681 50.9669 15.5835 51.0188C15.486 51.0706 15.3815 51.1107 15.2702 51.1391C15.159 51.1672 15.045 51.1811 14.9273 51.1811H13.8301V48.6921H14.9273C15.045 48.6921 15.159 48.7059 15.2696 48.7336C15.3801 48.7613 15.4838 48.8008 15.5813 48.8519C15.6788 48.9035 15.7681 48.9659 15.8498 49.0396C15.9307 49.1132 16.0005 49.1961 16.0585 49.2876C16.1166 49.3795 16.1622 49.4797 16.1948 49.5882C16.2263 49.6974 16.2431 49.8124 16.2431 49.9333Z" fill="white"/>
<path fill-rule="evenodd" clip-rule="evenodd" d="M18.5872 51.1811H17.9602L17.0303 48.6921H17.7298L18.4199 50.6954L19.0434 48.6921H19.4694L18.5872 51.1811Z" fill="white"/>
<path fill-rule="evenodd" clip-rule="evenodd" d="M22.0423 51.1811H20.2559V48.6921H22.0423V49.0102H20.9417V49.7793H21.792V50.0956H20.9417V50.8631H22.0423V51.1811Z" fill="white"/>
<path fill-rule="evenodd" clip-rule="evenodd" d="M23.1471 51.1811H22.8291V48.6921H23.2744L24.7871 50.4015V48.6921H25.1038V51.1811H24.6572L23.1471 49.4733V51.1811Z" fill="white"/>
<path fill-rule="evenodd" clip-rule="evenodd" d="M27.2541 51.1811H26.5683V49.0102H25.8906V48.6921H27.9317V49.0102H27.2541V51.1811Z" fill="white"/>
<path fill-rule="evenodd" clip-rule="evenodd" d="M29.5639 48.6921C29.5334 48.7856 29.5059 48.882 29.4832 48.9818C29.4602 49.0812 29.4409 49.1808 29.4257 49.2805C29.4112 49.3805 29.4001 49.4786 29.3926 49.5753C29.3849 49.6721 29.3814 49.7638 29.3814 49.8503C29.3814 49.9135 29.3814 49.9847 29.382 50.064C29.3829 50.1426 29.387 50.2229 29.396 50.3049C29.4041 50.3867 29.4187 50.4663 29.438 50.5443C29.4574 50.6218 29.4866 50.6914 29.5253 50.7526C29.5639 50.8138 29.6137 50.8625 29.6738 50.8995C29.7346 50.9363 29.81 50.9548 29.8999 50.9548C29.9787 50.9548 30.0472 50.9413 30.1048 50.9142C30.1612 50.887 30.2097 50.8503 30.2499 50.8043C30.2892 50.7584 30.321 50.7051 30.3446 50.6454C30.368 50.5855 30.3867 50.5226 30.4 50.4569C30.4131 50.3912 30.4221 50.3247 30.4262 50.2575C30.4303 50.1898 30.4324 50.1258 30.4324 50.0647V48.6921H31.1182V49.9575C31.1182 50.1383 31.0892 50.3066 31.0317 50.4621C30.9744 50.6177 30.8928 50.7528 30.7878 50.8672C30.6832 50.9821 30.557 51.0718 30.4075 51.1369C30.2596 51.2022 30.0942 51.2348 29.9136 51.2348C29.7893 51.2348 29.6732 51.2172 29.566 51.1818C29.4589 51.147 29.3607 51.0987 29.2714 51.0367C29.1824 50.9752 29.1029 50.9018 29.0329 50.8174C28.9631 50.7324 28.9051 50.6401 28.8579 50.5398C28.8117 50.4397 28.7756 50.3338 28.7523 50.2229C28.7273 50.1116 28.717 49.9989 28.719 49.8849V49.8503C28.7205 49.7578 28.7295 49.6629 28.7467 49.5641C28.7639 49.4658 28.7875 49.367 28.8167 49.2678C28.8463 49.1684 28.8815 49.0702 28.9229 48.9728C28.9644 48.8755 29.0108 48.7819 29.0612 48.6921H29.5639Z" fill="white"/>
<path fill-rule="evenodd" clip-rule="evenodd" d="M33.3204 49.4216C33.3204 49.2545 33.2797 49.1319 33.1989 49.0532C33.1173 48.9749 32.9956 48.9358 32.833 48.9358H32.591V50.0163H32.833C32.9193 50.0163 32.9935 49.9995 33.0551 49.9671C33.1165 49.9338 33.1669 49.8903 33.2064 49.8357C33.2458 49.7808 33.2743 49.7178 33.293 49.6461C33.3114 49.5746 33.3204 49.5001 33.3204 49.4216ZM32.591 51.1811H31.9053V48.6921H33.1289C33.2438 48.6921 33.355 48.7057 33.4622 48.7329C33.5695 48.7598 33.6642 48.8022 33.7464 48.8609C33.8287 48.9189 33.8944 48.9938 33.9433 49.0861C33.9925 49.1785 34.0168 49.2901 34.0168 49.4216C34.0168 49.5242 33.9953 49.6206 33.9524 49.7112C33.909 49.8016 33.8515 49.8821 33.7795 49.9531C33.7078 50.0238 33.6247 50.0827 33.5313 50.1295C33.4381 50.1758 33.3413 50.2069 33.241 50.222C33.2859 50.298 33.3329 50.3699 33.3821 50.4378C33.4313 50.506 33.4802 50.5696 33.5307 50.6289C33.5805 50.6882 33.6303 50.7429 33.6801 50.7934C33.7299 50.8432 33.7767 50.8889 33.8218 50.9306C33.9277 51.0274 34.0327 51.1109 34.1364 51.1811H33.2812C33.212 51.1154 33.1457 51.0366 33.0834 50.9443C33.0308 50.8659 32.9775 50.7691 32.9237 50.6529C32.8704 50.5374 32.8289 50.4034 32.8 50.2512H32.591V51.1811Z" fill="white"/>
<path fill-rule="evenodd" clip-rule="evenodd" d="M36.7095 51.1811H34.9229V48.6921H36.7095V49.0102H35.6089V49.7793H36.4592V50.0956H35.6089V50.8631H36.7095V51.1811Z" fill="white"/>
<path fill-rule="evenodd" clip-rule="evenodd" d="M41.6514 49.3117L41.3555 49.4362C41.3327 49.3611 41.3016 49.2928 41.2627 49.2306C41.2241 49.1683 41.1786 49.115 41.1245 49.0708C41.0713 49.0261 41.0104 48.9916 40.942 48.9671C40.8744 48.9422 40.8003 48.9297 40.7195 48.9297C40.633 48.9297 40.5535 48.9439 40.4816 48.9718C40.4097 49.0001 40.3453 49.0392 40.2879 49.0886C40.2313 49.1382 40.1814 49.1957 40.1387 49.2617C40.0958 49.3274 40.0605 49.3972 40.0316 49.4719C40.0023 49.5457 39.9809 49.6228 39.9672 49.7023C39.9534 49.7819 39.9465 49.8597 39.9465 49.9357C39.9465 50.0568 39.9609 50.177 39.9893 50.297C40.0176 50.4169 40.0627 50.5244 40.1241 50.6202C40.1857 50.716 40.2652 50.7934 40.3633 50.8525C40.4615 50.912 40.5797 50.9417 40.7195 50.9417C40.7934 50.9417 40.8632 50.9294 40.9282 50.9043C40.9946 50.8798 41.054 50.8457 41.1073 50.8027C41.1612 50.7591 41.2082 50.7084 41.2484 50.6496C41.2885 50.5908 41.3209 50.5276 41.3452 50.4594L41.6445 50.5788C41.6003 50.6883 41.5408 50.784 41.4648 50.8663C41.3886 50.9489 41.3016 51.017 41.2041 51.0713C41.1067 51.1257 41.003 51.166 40.8915 51.1935C40.7803 51.2204 40.6682 51.2339 40.5548 51.2339C40.4331 51.2339 40.3156 51.219 40.2036 51.189C40.0909 51.1589 39.9865 51.1164 39.8896 51.061C39.793 51.0056 39.7052 50.939 39.6262 50.8605C39.5476 50.7821 39.4798 50.6951 39.4237 50.5996C39.3676 50.5038 39.3249 50.3996 39.2944 50.2876C39.2639 50.1751 39.248 50.0578 39.248 49.9357C39.248 49.8137 39.2639 49.6965 39.2944 49.5838C39.3249 49.4719 39.3676 49.3673 39.4237 49.2714C39.4798 49.1747 39.5476 49.0878 39.6262 49.0092C39.7052 48.9308 39.793 48.864 39.8896 48.8087C39.9865 48.7535 40.0909 48.7109 40.2036 48.6809C40.3156 48.6508 40.4331 48.636 40.5548 48.636C40.6723 48.636 40.788 48.6497 40.8999 48.6773C41.0126 48.7049 41.117 48.7468 41.2138 48.8024C41.3106 48.8584 41.3969 48.9291 41.4723 49.0133C41.5477 49.0985 41.6072 49.1977 41.6514 49.3117Z" fill="white"/>
<path fill-rule="evenodd" clip-rule="evenodd" d="M44.9598 49.9927V50.0256C44.9576 50.1224 44.9473 50.2227 44.9293 50.3264C44.9113 50.4301 44.8866 50.5338 44.8539 50.6375C44.8222 50.7412 44.7835 50.8439 44.7384 50.9452C44.6935 51.0464 44.6431 51.1436 44.587 51.2364C44.531 51.3293 44.4708 51.4159 44.4067 51.4977C44.3425 51.5784 44.2739 51.6503 44.2027 51.7126L43.9455 51.564C43.9856 51.4957 44.0221 51.4219 44.0548 51.342C44.0878 51.2619 44.1177 51.1778 44.1439 51.0904C44.17 51.003 44.193 50.913 44.2123 50.8207C44.231 50.7283 44.2469 50.6369 44.2593 50.5458C44.2725 50.455 44.2821 50.365 44.2884 50.2772C44.2946 50.1888 44.298 50.105 44.298 50.0256C44.298 49.9633 44.2973 49.8929 44.2967 49.8139C44.2961 49.7348 44.2918 49.6546 44.2828 49.5728C44.2746 49.4907 44.26 49.4109 44.2407 49.3336C44.2214 49.2554 44.1921 49.1863 44.1535 49.125C44.1148 49.0639 44.065 49.0151 44.0049 48.978C43.9442 48.9411 43.8694 48.9228 43.7795 48.9228C43.6992 48.9228 43.6315 48.9363 43.5742 48.9636C43.5175 48.9907 43.469 49.0267 43.4291 49.072C43.3895 49.1177 43.3577 49.1706 43.3341 49.2305C43.3108 49.2904 43.2921 49.3535 43.279 49.4199C43.2657 49.486 43.2568 49.5525 43.2526 49.6204C43.2485 49.6874 43.247 49.7514 43.247 49.8113V50.2935H43.9918V50.5787H43.247V51.1835H42.5605V49.9184C42.5605 49.7377 42.5895 49.5693 42.647 49.4136C42.7044 49.2582 42.786 49.1229 42.8918 49.0085C42.9968 48.8938 43.1242 48.8038 43.2721 48.7388C43.42 48.6735 43.5851 48.6411 43.767 48.6411C43.8902 48.6411 44.0056 48.6587 44.1136 48.6939C44.2214 48.7289 44.3195 48.7772 44.4088 48.839C44.4973 48.9007 44.5761 48.9739 44.6458 49.0583C44.7156 49.1433 44.7738 49.2356 44.8209 49.3359C44.867 49.4362 44.9023 49.5423 44.9273 49.6539C44.9508 49.7656 44.9617 49.8787 44.9598 49.9927Z" fill="white"/>
<path fill-rule="evenodd" clip-rule="evenodd" d="M46.4875 49.3273L46.294 51.1838H45.8701L46.294 48.6946H46.9209L47.5039 50.5942L48.0936 48.6946H48.7207L49.0733 51.1838H48.375L48.1698 49.3757L47.6836 51.1838H47.0564L46.4875 49.3273Z" fill="white"/>
<path fill-rule="evenodd" clip-rule="evenodd" d="M51.5197 49.4534C51.5197 49.2932 51.4789 49.1674 51.398 49.0755C51.3164 48.9842 51.194 48.9383 51.0301 48.9383H50.6692V50.0185H51.0301C51.118 50.0185 51.1927 50.0043 51.2541 49.9765C51.3157 49.9481 51.3662 49.9088 51.4057 49.858C51.445 49.807 51.4734 49.7476 51.492 49.6791C51.5107 49.6103 51.5197 49.5354 51.5197 49.4534ZM50.6692 51.1836H49.9834V48.6946H51.3276C51.4443 48.6946 51.5556 48.7103 51.6621 48.7412C51.7686 48.7723 51.8633 48.8193 51.9449 48.8818C52.0265 48.9449 52.0922 49.0237 52.1413 49.1191C52.1905 49.2138 52.2145 49.3254 52.2145 49.4534C52.2145 49.5339 52.203 49.6099 52.18 49.6806C52.1572 49.7519 52.1246 49.8163 52.0838 49.8751C52.0432 49.9339 51.9953 49.9868 51.9401 50.0342C51.8848 50.0815 51.824 50.1214 51.7583 50.1534C51.6926 50.1856 51.6234 50.2105 51.5502 50.2276C51.4768 50.2451 51.4029 50.2539 51.3276 50.2539H50.6692V51.1836Z" fill="white"/>
<path fill-rule="evenodd" clip-rule="evenodd" d="M53.8108 51.1836H53.125V48.6946H53.8108V51.1836Z" fill="white"/>
<path fill-rule="evenodd" clip-rule="evenodd" d="M55.0387 51.1836H54.7207V48.6946H55.1658L56.6787 50.4042V48.6946H56.9954V51.1836H56.5488L55.0387 49.4757V51.1836Z" fill="white"/>
<path fill-rule="evenodd" clip-rule="evenodd" d="M60.3096 49.3117L60.0137 49.4362C59.9909 49.3611 59.9598 49.2928 59.9209 49.2306C59.8823 49.1683 59.8365 49.115 59.7826 49.0708C59.7294 49.0261 59.6686 48.9916 59.6001 48.9671C59.5323 48.9422 59.4584 48.9297 59.3775 48.9297C59.2912 48.9297 59.2115 48.9443 59.1395 48.9729C59.0679 49.0016 59.0035 49.0407 58.9461 49.0895C58.8894 49.1384 58.8396 49.1957 58.7966 49.2617C58.7539 49.3274 58.7185 49.3972 58.6902 49.4719C58.6618 49.5457 58.6412 49.6228 58.6266 49.7023C58.6122 49.7819 58.6045 49.8597 58.6045 49.9357C58.6045 50.0568 58.6191 50.177 58.6475 50.297C58.6758 50.4169 58.7207 50.5244 58.7823 50.6202C58.8437 50.716 58.9231 50.7934 59.0215 50.8525C59.1196 50.912 59.2379 50.9417 59.3775 50.9417C59.4537 50.9417 59.5132 50.9248 59.5559 50.8905C59.5982 50.8566 59.6195 50.7971 59.6195 50.7119V49.9477H60.3053V51.1836H60.1071L59.986 50.9885C59.8754 51.0724 59.7537 51.1346 59.6203 51.174C59.4874 51.2141 59.3513 51.2339 59.213 51.2339C59.0913 51.2339 58.9738 51.219 58.8617 51.189C58.749 51.1589 58.6447 51.1164 58.5478 51.061C58.451 51.0056 58.3633 50.939 58.2843 50.8605C58.2055 50.7821 58.1379 50.6951 58.0818 50.5996C58.0258 50.5038 57.9829 50.3996 57.9524 50.2876C57.9221 50.1751 57.9062 50.0578 57.9062 49.9357C57.9062 49.8137 57.9221 49.6965 57.9524 49.5838C57.9829 49.4719 58.0258 49.3673 58.0818 49.2714C58.1379 49.1747 58.2055 49.0878 58.2843 49.0092C58.3633 48.9308 58.451 48.864 58.5478 48.8087C58.6447 48.7535 58.749 48.7109 58.8617 48.6809C58.9738 48.6508 59.0913 48.636 59.213 48.636C59.3304 48.636 59.4459 48.6497 59.558 48.6773C59.6705 48.7049 59.7751 48.7468 59.8718 48.8024C59.9688 48.8584 60.0551 48.9291 60.1305 49.0133C60.2058 49.0985 60.2653 49.1977 60.3096 49.3117Z" fill="white"/>
<path fill-rule="evenodd" clip-rule="evenodd" d="M52.2724 21.4182C48.2821 17.2683 42.7675 14.5948 36.6389 14.3086L36.3754 11.1393C39.55 11.2405 42.704 11.9106 45.6364 13.1289C48.8262 14.449 51.7496 16.4074 54.1918 18.849C54.4016 19.0588 54.6062 19.2733 54.8089 19.4901L52.2724 21.4182ZM57.6788 36.9612H55.9864L42.0897 23.2917L28.4201 36.9612H25.0598L29.0877 33.1232L27.4962 31.6068L25.8259 33.243H22.7945L27.4773 28.7363L30.6096 31.7211L32.2769 30.1324L27.5026 25.5829L15.5618 36.9612H13.4064C13.6927 24.9989 23.5128 15.3555 35.5427 15.3555C47.5725 15.3555 57.3926 24.9989 57.6788 36.9612ZM44.854 33.1365L42.0721 30.3544L35.465 36.9612H32.355L42.0684 27.2479L47.9568 33.1365H44.854ZM16.1967 19.576C16.4247 19.3297 16.6562 19.0865 16.8934 18.849C19.3356 16.4074 22.2592 14.449 25.4491 13.1289C28.3053 11.9422 31.3723 11.2759 34.4636 11.1484L34.1827 14.3227C28.1184 14.6749 22.6711 17.364 18.7317 21.5022L16.1967 19.576ZM62.9838 36.9945C62.9199 33.5709 62.2183 30.157 60.9036 26.9932C59.8288 24.3966 58.347 21.9718 56.5378 19.8223L59.5825 15.8608L55.6675 18.8372C55.4329 18.584 55.195 18.3339 54.951 18.0899C52.4103 15.5494 49.3682 13.5116 46.0475 12.1371C42.9576 10.8531 39.629 10.1532 36.2857 10.0617L35.4493 0L34.5587 10.0707C31.2967 10.1886 28.0536 10.8839 25.0379 12.1371C21.7171 13.5116 18.6752 15.5494 16.1345 18.0899C15.8626 18.3617 15.5979 18.6403 15.3376 18.9235L11.5028 16.0093L14.4532 19.9346C12.6867 22.056 11.2378 24.442 10.1818 26.9932C8.8669 30.157 8.16544 33.5709 8.10165 36.9945L0.0849609 37.498L8.63202 38.0348L9.16856 38.0685L9.16877 37.498C9.17027 34.0439 9.84857 30.5929 11.1734 27.4044C12.1557 25.0316 13.4913 22.8062 15.116 20.8167L17.0839 23.4349C14.1011 27.3404 12.3264 32.2155 12.3264 37.498V38.0348H58.7588V37.498C58.7588 32.1449 56.9367 27.2098 53.8815 23.2784L55.8679 20.6936C57.5384 22.7145 58.9093 24.9824 59.9119 27.4044C61.2369 30.5929 61.9152 34.0439 61.9164 37.498L61.9167 38.0685L62.4532 38.0348L71.0003 37.498L62.9838 36.9945Z" fill="white"/>
</svg>
