<svg width="71" height="52" viewBox="0 0 71 52" fill="none" xmlns="http://www.w3.org/2000/svg">
<path fill-rule="evenodd" clip-rule="evenodd" d="M13.5265 46.3736V45.8589C13.6766 45.8312 13.7955 45.8007 13.8827 45.767C13.9701 45.7333 14.0534 45.6842 14.1332 45.62C14.2623 45.5188 14.38 45.3792 14.4871 45.2013C14.5942 45.0239 14.6821 44.8262 14.7495 44.6086C14.7984 44.4401 14.8433 44.3291 14.885 44.2752C14.926 44.2217 14.9867 44.1949 15.0662 44.1949C15.1521 44.1949 15.215 44.2303 15.2545 44.3007C15.2732 44.3343 15.2824 44.4016 15.2824 44.503V46.3736H13.5265ZM13.1542 46.3736H11.1088H10.9898C10.8792 46.3736 10.794 46.3528 10.7345 46.3113C10.6744 46.2701 10.6445 46.2113 10.6445 46.1346C10.6445 46.009 10.7059 45.9264 10.8283 45.8862C10.9294 45.8527 10.9883 45.8321 11.0055 45.8242C11.022 45.8166 11.0398 45.799 11.0583 45.7713C11.0948 45.7224 11.1133 45.6443 11.1133 45.5369V40.9361C11.1133 40.8288 11.0948 40.7506 11.0583 40.7014C11.0398 40.674 11.022 40.6566 11.0055 40.6488C10.9883 40.6413 10.9294 40.6205 10.8283 40.5868C10.7059 40.5466 10.6445 40.4642 10.6445 40.3386C10.6445 40.2619 10.6744 40.2029 10.7345 40.1616C10.794 40.1202 10.8792 40.0994 10.9898 40.0994H11.1088H13.1588H13.315C13.4498 40.0994 13.5462 40.118 13.6044 40.1547C13.6845 40.2037 13.724 40.268 13.724 40.3478C13.724 40.4826 13.6508 40.567 13.5033 40.6005C13.3843 40.628 13.3134 40.6467 13.2924 40.6555C13.2705 40.6647 13.2474 40.6834 13.2228 40.7107C13.1774 40.7658 13.1542 40.8519 13.1542 40.9681V46.3736Z" fill="#1B1918"/>
<path fill-rule="evenodd" clip-rule="evenodd" d="M18.6725 46.3736H16.6224H16.5032C16.3929 46.3736 16.3076 46.3528 16.2481 46.3113C16.188 46.2701 16.1582 46.2113 16.1582 46.1346C16.1582 46.009 16.2198 45.9264 16.342 45.8862C16.4431 45.8527 16.5021 45.8321 16.5194 45.8242C16.5357 45.8166 16.5535 45.799 16.5721 45.7713C16.6085 45.7224 16.6269 45.6443 16.6269 45.5369V40.9361C16.6269 40.8288 16.6085 40.7506 16.5721 40.7014C16.5535 40.674 16.5357 40.6566 16.5194 40.6488C16.5021 40.6413 16.4431 40.6205 16.342 40.5868C16.2198 40.5466 16.1582 40.4642 16.1582 40.3386C16.1582 40.2619 16.188 40.2029 16.2481 40.1616C16.3076 40.1202 16.3929 40.0994 16.5032 40.0994H16.6224H18.6725H18.7921C18.9025 40.0994 18.9873 40.1202 19.0474 40.1616C19.1069 40.2029 19.1367 40.2619 19.1367 40.3386C19.1367 40.4642 19.0751 40.5466 18.9529 40.5868C18.8516 40.6205 18.793 40.6413 18.7756 40.6488C18.7591 40.6566 18.7412 40.674 18.7234 40.7014C18.6863 40.7506 18.668 40.8288 18.668 40.9361V45.5369C18.668 45.6443 18.6863 45.7224 18.7234 45.7713C18.7412 45.799 18.7591 45.8166 18.7756 45.8242C18.793 45.8321 18.8516 45.8527 18.9529 45.8862C19.0751 45.9264 19.1367 46.009 19.1367 46.1346C19.1367 46.2113 19.1069 46.2701 19.0474 46.3113C18.9873 46.3528 18.9025 46.3736 18.7921 46.3736H18.6725Z" fill="#1B1918"/>
<path fill-rule="evenodd" clip-rule="evenodd" d="M24.4989 40.0994H26.5391H26.6635C26.8934 40.0994 27.0085 40.179 27.0085 40.3384C27.0085 40.464 26.9471 40.5467 26.824 40.5868C26.7236 40.6205 26.6641 40.6411 26.6476 40.6489C26.6304 40.6563 26.6132 40.674 26.5948 40.7015C26.5576 40.7506 26.5391 40.8286 26.5391 40.9361V45.5369C26.5391 45.6443 26.5576 45.7222 26.5948 45.7714C26.6132 45.7991 26.6304 45.8165 26.6476 45.8242C26.6641 45.8321 26.7236 45.8526 26.824 45.8862C26.9471 45.9264 27.0085 46.0089 27.0085 46.1345C27.0085 46.294 26.8934 46.3737 26.6635 46.3737H26.5391H24.4944H24.3423C24.2073 46.3737 24.1055 46.3528 24.0368 46.3114C23.9681 46.2701 23.9329 46.2079 23.9329 46.1252C23.9329 45.9904 24.007 45.906 24.1538 45.8725C24.2734 45.842 24.3434 45.8229 24.3653 45.8152C24.3866 45.8076 24.4083 45.7898 24.4296 45.7624C24.4757 45.7072 24.4989 45.6197 24.4989 45.5002V40.0994ZM21.0239 42.2137L21.5107 43.6018V44.9855C21.5107 45.1264 21.5164 45.2275 21.5272 45.2887C21.5377 45.3501 21.5616 45.4175 21.5985 45.491C21.6627 45.6258 21.7514 45.7269 21.865 45.7944L22.0348 45.9049C22.1512 45.9751 22.2093 46.0533 22.2093 46.1392C22.2093 46.2955 22.0945 46.3737 21.865 46.3737H20.7113C20.4813 46.3737 20.3662 46.2968 20.3662 46.1437C20.3662 46.0949 20.3761 46.0572 20.3967 46.0312C20.4165 46.0049 20.4553 45.9751 20.5135 45.9417C20.8534 45.7579 21.0239 45.439 21.0239 44.9855V42.2137ZM22.8072 40.0994L23.7128 42.6782L24.1128 41.2851V42.8113L23.051 46.3737H22.8072L21.0239 41.0833C20.9625 40.9052 20.8979 40.7861 20.8309 40.7246C20.7905 40.685 20.7218 40.6555 20.6241 40.6372C20.4244 40.5943 20.3252 40.4994 20.3252 40.3523C20.3252 40.2727 20.3536 40.2106 20.4098 40.1661C20.4667 40.1217 20.5488 40.0994 20.6559 40.0994H22.8072Z" fill="#1B1918"/>
<path fill-rule="evenodd" clip-rule="evenodd" d="M30.7749 46.3736H28.7248H28.6058C28.4954 46.3736 28.41 46.3528 28.3505 46.3113C28.2904 46.2701 28.2607 46.2113 28.2607 46.1346C28.2607 46.009 28.3222 45.9264 28.4443 45.8862C28.5457 45.8527 28.6045 45.8321 28.6217 45.8242C28.6382 45.8166 28.6561 45.799 28.6745 45.7713C28.7108 45.7224 28.7295 45.6443 28.7295 45.5369V40.9361C28.7295 40.8288 28.7108 40.7506 28.6745 40.7014C28.6561 40.674 28.6382 40.6566 28.6217 40.6488C28.6045 40.6413 28.5457 40.6205 28.4443 40.5868C28.3222 40.5466 28.2607 40.4642 28.2607 40.3386C28.2607 40.2619 28.2904 40.2029 28.3505 40.1616C28.41 40.1202 28.4954 40.0994 28.6058 40.0994H28.7248H30.7749H30.8947C31.0051 40.0994 31.0897 40.1202 31.1498 40.1616C31.2093 40.2029 31.2391 40.2619 31.2391 40.3386C31.2391 40.4642 31.1775 40.5466 31.0553 40.5868C30.954 40.6205 30.8953 40.6413 30.8779 40.6488C30.8616 40.6566 30.8436 40.674 30.8258 40.7014C30.7888 40.7506 30.7704 40.8288 30.7704 40.9361V45.5369C30.7704 45.6443 30.7888 45.7224 30.8258 45.7713C30.8436 45.799 30.8616 45.8166 30.8779 45.8242C30.8953 45.8321 30.954 45.8527 31.0553 45.8862C31.1775 45.9264 31.2391 46.009 31.2391 46.1346C31.2391 46.2113 31.2093 46.2701 31.1498 46.3113C31.0897 46.3528 31.0051 46.3736 30.8947 46.3736H30.7749Z" fill="#1B1918"/>
<path fill-rule="evenodd" clip-rule="evenodd" d="M37.516 40.0994V41.9792C37.516 42.0683 37.4909 42.1403 37.44 42.1954C37.3898 42.2505 37.3242 42.2781 37.2448 42.2781C37.1681 42.2781 37.1048 42.2528 37.0539 42.2021C37.0037 42.1517 36.9704 42.0821 36.9554 41.9932L36.909 41.713C36.8634 41.4276 36.7742 41.1811 36.6428 40.9728C36.5599 40.8442 36.4482 40.7384 36.3076 40.6555V40.0994H37.516ZM35.926 40.0994V45.5002C35.926 45.6197 35.9483 45.7054 35.9947 45.7579C36.0192 45.7885 36.0424 45.8076 36.0635 45.8152C36.0845 45.8229 36.1554 45.842 36.2751 45.8725C36.4218 45.906 36.4959 45.9904 36.4959 46.1252C36.4959 46.2051 36.4555 46.2695 36.376 46.3182C36.3179 46.355 36.2195 46.3737 36.0819 46.3737H35.9299H33.8804H33.7284C33.5936 46.3737 33.4918 46.3528 33.4231 46.3114C33.3541 46.2701 33.3198 46.2079 33.3198 46.1252C33.3198 45.9904 33.3932 45.906 33.5399 45.8725C33.6597 45.842 33.7303 45.8229 33.7516 45.8152C33.7726 45.8076 33.7945 45.7885 33.8155 45.7579C33.8619 45.7054 33.8851 45.6197 33.8851 45.5002V40.0994H35.926ZM32.3037 40.0994H33.5128V40.6555C33.3687 40.7384 33.2564 40.8442 33.177 40.9728C33.0453 41.1811 32.9562 41.4276 32.9105 41.713L32.8641 41.9932C32.8491 42.0821 32.8161 42.1517 32.7658 42.2021C32.7149 42.2528 32.6514 42.2781 32.5747 42.2781C32.4955 42.2781 32.43 42.2505 32.3797 42.1954C32.3287 42.1403 32.3037 42.0683 32.3037 41.9792V40.0994Z" fill="#1B1918"/>
<path fill-rule="evenodd" clip-rule="evenodd" d="M41.462 46.3736V45.8589C41.6121 45.8312 41.7311 45.8007 41.8184 45.767C41.9056 45.7333 41.9889 45.6842 42.069 45.62C42.1979 45.5188 42.3155 45.3792 42.4227 45.2013C42.5298 45.0239 42.6176 44.8262 42.685 44.6086C42.734 44.4401 42.7789 44.3291 42.8208 44.2752C42.8617 44.2217 42.9225 44.1949 43.0018 44.1949C43.0877 44.1949 43.1505 44.2303 43.1903 44.3007C43.2087 44.3343 43.218 44.4016 43.218 44.503V46.3736H41.462ZM41.0899 46.3736H39.0443H38.9254C38.8148 46.3736 38.7295 46.3528 38.67 46.3113C38.6099 46.2701 38.5801 46.2113 38.5801 46.1346C38.5801 46.009 38.6417 45.9264 38.7639 45.8862C38.865 45.8527 38.9238 45.8321 38.941 45.8242C38.9575 45.8166 38.9754 45.799 38.9941 45.7713C39.0304 45.7224 39.0488 45.6443 39.0488 45.5369V40.9361C39.0488 40.8288 39.0304 40.7506 38.9941 40.7014C38.9754 40.674 38.9575 40.6566 38.941 40.6488C38.9238 40.6413 38.865 40.6205 38.7639 40.5868C38.6417 40.5466 38.5801 40.4642 38.5801 40.3386C38.5801 40.2619 38.6099 40.2029 38.67 40.1616C38.7295 40.1202 38.8148 40.0994 38.9254 40.0994H39.0443H41.0944H41.2505C41.3853 40.0994 41.4817 40.118 41.5399 40.1547C41.62 40.2037 41.6595 40.268 41.6595 40.3478C41.6595 40.4826 41.5863 40.567 41.4388 40.6005C41.3198 40.628 41.249 40.6467 41.228 40.6555C41.2063 40.6647 41.1831 40.6834 41.1586 40.7107C41.1129 40.7658 41.0899 40.8519 41.0899 40.9681V46.3736Z" fill="#1B1918"/>
<path fill-rule="evenodd" clip-rule="evenodd" d="M47.0172 46.3736V45.877C47.2162 45.8467 47.3809 45.8038 47.511 45.7486C47.6413 45.6934 47.7723 45.609 47.9044 45.4956C48.036 45.3823 48.1412 45.2652 48.2191 45.144C48.2971 45.0228 48.3711 44.8629 48.442 44.6636C48.4755 44.5657 48.5107 44.4989 48.5477 44.4639C48.5848 44.4285 48.635 44.4111 48.699 44.4111C48.7849 44.4111 48.8446 44.4362 48.8789 44.4867C48.912 44.5374 48.9292 44.6256 48.9292 44.7513V46.3736H47.0172ZM47.0126 40.0994H48.865V41.7265C48.865 41.8217 48.8465 41.8905 48.8096 41.9335C48.7731 41.9764 48.7149 41.9979 48.635 41.9979C48.5676 41.9979 48.5187 41.9842 48.4882 41.9562C48.4573 41.9288 48.4281 41.8723 48.4001 41.7864C48.284 41.4311 48.1133 41.1596 47.8878 40.9728C47.663 40.786 47.3708 40.674 47.0126 40.6372V40.0994ZM46.9894 43.4458V42.9126C47.1672 42.8265 47.2988 42.7331 47.3847 42.6319C47.4706 42.531 47.5335 42.3962 47.5733 42.2277C47.5977 42.1113 47.6299 42.0305 47.6697 41.9863C47.7094 41.9421 47.7663 41.9195 47.8397 41.9195C47.9383 41.9195 48.0057 41.958 48.042 42.0346C48.0639 42.0744 48.0744 42.1648 48.0744 42.3056V44.057C48.0744 44.2011 48.0585 44.3007 48.0261 44.3559C47.9937 44.4111 47.9348 44.4384 47.8489 44.4384C47.7787 44.4384 47.7234 44.4169 47.6836 44.374C47.6439 44.3315 47.6115 44.2593 47.587 44.1582C47.5348 43.9467 47.4607 43.7843 47.3643 43.6709C47.2677 43.5576 47.1428 43.4825 46.9894 43.4458ZM46.6034 40.0994V46.3736H44.5578H44.4388C44.3284 46.3736 44.2432 46.3528 44.1835 46.3113C44.1234 46.2701 44.0938 46.2113 44.0938 46.1346C44.0938 46.009 44.1552 45.9264 44.2775 45.8862C44.3785 45.8527 44.4375 45.8321 44.4547 45.8242C44.4712 45.8166 44.4891 45.799 44.5075 45.7713C44.5438 45.7224 44.5623 45.6443 44.5623 45.5369V40.9361C44.5623 40.8288 44.5438 40.7506 44.5075 40.7014C44.4891 40.674 44.4712 40.6566 44.4547 40.6488C44.4375 40.6413 44.3785 40.6205 44.2775 40.5868C44.1552 40.5466 44.0938 40.4642 44.0938 40.3386C44.0938 40.2619 44.1234 40.2029 44.1835 40.1616C44.2432 40.1202 44.3284 40.0994 44.4388 40.0994H44.5578H46.6034Z" fill="#1B1918"/>
<path fill-rule="evenodd" clip-rule="evenodd" d="M52.6003 40.5041V39.9984C52.7841 40.0105 52.9434 40.0342 53.0782 40.0697C53.213 40.1047 53.4048 40.1745 53.6528 40.2786C53.7142 40.3033 53.7651 40.3153 53.8048 40.3153C53.863 40.3153 53.9059 40.2954 53.9337 40.2559L54.035 40.1223C54.0837 40.0551 54.1434 40.0214 54.2141 40.0214C54.2967 40.0214 54.3569 40.0512 54.3951 40.1109C54.4335 40.1704 54.4526 40.2651 54.4526 40.3937V41.9103C54.4526 41.9991 54.4275 42.072 54.3766 42.1289C54.3266 42.1858 54.2609 42.2137 54.1817 42.2137C54.1202 42.2137 54.064 42.1939 54.0118 42.154C53.9839 42.1295 53.9616 42.0996 53.945 42.0644C53.9278 42.0292 53.9119 41.9702 53.8967 41.8875C53.863 41.7374 53.8048 41.5826 53.7222 41.4233C53.6395 41.264 53.5431 41.1214 53.4325 40.9956C53.2118 40.7476 52.9348 40.5838 52.6003 40.5041ZM51.9986 45.9736V46.4975C51.7474 46.4975 51.4698 46.4258 51.1662 46.2817C51.0532 46.2295 50.9753 46.1956 50.9321 46.1806C50.8892 46.1654 50.8475 46.1574 50.8078 46.1574C50.7464 46.1574 50.7008 46.1675 50.6698 46.1875C50.6393 46.2074 50.5905 46.2572 50.5229 46.3369C50.4675 46.4043 50.408 46.438 50.3438 46.438C50.1718 46.438 50.0859 46.3062 50.0859 46.0427V44.3697C50.0859 44.2838 50.1104 44.211 50.16 44.151C50.2089 44.0914 50.2704 44.06 50.3438 44.057C50.4112 44.054 50.464 44.0731 50.5025 44.1143C50.5409 44.1558 50.5733 44.2286 50.601 44.3327C50.6717 44.5964 50.7735 44.8431 50.9063 45.0728C51.0399 45.3026 51.1954 45.4971 51.3732 45.6566C51.5543 45.8218 51.7626 45.9276 51.9986 45.9736ZM52.2374 39.9755V40.5041C52.0476 40.5561 51.9026 40.6366 51.803 40.7454C51.7032 40.854 51.6536 40.9881 51.6536 41.1473C51.6536 41.3007 51.6952 41.4344 51.7777 41.5497C51.8603 41.6646 51.9954 41.7742 52.1824 41.8783C52.3106 41.9487 52.6022 42.0835 53.0559 42.2828C53.3314 42.4022 53.545 42.5102 53.697 42.6068C53.8484 42.7032 53.9919 42.8237 54.1267 42.9678C54.4879 43.3476 54.6689 43.7995 54.6689 44.3235C54.6689 44.7188 54.5711 45.0804 54.3747 45.4083C54.1784 45.7363 53.9086 45.9938 53.5654 46.1806C53.3816 46.2787 53.18 46.356 52.9612 46.4127C52.7424 46.4694 52.5376 46.4975 52.3477 46.4975V45.9736C52.614 45.9093 52.8064 45.8194 52.9249 45.7047C53.0426 45.5899 53.1014 45.4344 53.1014 45.2384C53.1014 45.0332 53.0095 44.8523 52.8257 44.6958C52.7033 44.5948 52.4699 44.4693 52.1268 44.3192C51.75 44.1534 51.4921 44.0355 51.3525 43.9651C51.2132 43.8947 51.079 43.8116 50.95 43.7167C50.3743 43.3062 50.0859 42.7591 50.0859 42.0758C50.0859 41.7265 50.1581 41.4042 50.3021 41.1083C50.4462 40.8128 50.6472 40.5745 50.9044 40.3937C51.2628 40.1423 51.707 40.0029 52.2374 39.9755Z" fill="#1B1918"/>
<path fill-rule="evenodd" clip-rule="evenodd" d="M58.3706 40.5041V39.9984C58.5544 40.0105 58.7137 40.0342 58.8486 40.0697C58.9834 40.1047 59.1753 40.1745 59.4231 40.2786C59.4845 40.3033 59.5354 40.3153 59.5752 40.3153C59.6333 40.3153 59.6765 40.2954 59.7039 40.2559L59.8053 40.1223C59.8543 40.0551 59.9137 40.0214 59.9844 40.0214C60.0671 40.0214 60.1272 40.0512 60.1656 40.1109C60.204 40.1704 60.2231 40.2651 60.2231 40.3937V41.9103C60.2231 41.9991 60.1981 42.072 60.1469 42.1289C60.0969 42.1858 60.0314 42.2137 59.952 42.2137C59.8906 42.2137 59.8343 42.1939 59.7821 42.154C59.7544 42.1295 59.7319 42.0996 59.7153 42.0644C59.6982 42.0292 59.6823 41.9702 59.667 41.8875C59.6333 41.7374 59.5752 41.5826 59.4924 41.4233C59.4098 41.264 59.3134 41.1214 59.2028 40.9956C58.9821 40.7476 58.7051 40.5838 58.3706 40.5041ZM57.7689 45.9736V46.4975C57.5177 46.4975 57.2401 46.4258 56.9367 46.2817C56.8235 46.2295 56.7456 46.1956 56.7024 46.1806C56.6597 46.1654 56.6178 46.1574 56.5783 46.1574C56.5167 46.1574 56.4712 46.1675 56.44 46.1875C56.4098 46.2074 56.3608 46.2572 56.2934 46.3369C56.2378 46.4043 56.1783 46.438 56.1141 46.438C55.9423 46.438 55.8564 46.3062 55.8564 46.0427V44.3697C55.8564 44.2838 55.8807 44.211 55.9303 44.151C55.9793 44.0914 56.0407 44.06 56.1141 44.057C56.1815 44.054 56.2345 44.0731 56.2728 44.1143C56.3112 44.1558 56.3437 44.2286 56.3714 44.3327C56.4422 44.5964 56.544 44.8431 56.6767 45.0728C56.8102 45.3026 56.9657 45.4971 57.1434 45.6566C57.3247 45.8218 57.533 45.9276 57.7689 45.9736ZM58.0077 39.9755V40.5041C57.8179 40.5561 57.6732 40.6366 57.5733 40.7454C57.4735 40.854 57.4239 40.9881 57.4239 41.1473C57.4239 41.3007 57.4655 41.4344 57.5482 41.5497C57.6309 41.6646 57.7657 41.7742 57.9528 41.8783C58.0809 41.9487 58.3725 42.0835 58.8262 42.2828C59.1019 42.4022 59.3153 42.5102 59.4674 42.6068C59.6187 42.7032 59.7621 42.8237 59.8972 42.9678C60.2581 43.3476 60.4394 43.7995 60.4394 44.3235C60.4394 44.7188 60.3414 45.0804 60.145 45.4083C59.9487 45.7363 59.6791 45.9938 59.336 46.1806C59.1521 46.2787 58.9505 46.356 58.7315 46.4127C58.5127 46.4694 58.3079 46.4975 58.1181 46.4975V45.9736C58.3845 45.9093 58.5769 45.8194 58.6952 45.7047C58.8129 45.5899 58.8717 45.4344 58.8717 45.2384C58.8717 45.0332 58.7798 44.8523 58.596 44.6958C58.4736 44.5948 58.2405 44.4693 57.8971 44.3192C57.5205 44.1534 57.2626 44.0355 57.123 43.9651C56.9835 43.8947 56.8493 43.8116 56.7205 43.7167C56.1446 43.3062 55.8564 42.7591 55.8564 42.0758C55.8564 41.7265 55.9284 41.4042 56.0725 41.1083C56.2168 40.8128 56.4177 40.5745 56.675 40.3937C57.0331 40.1423 57.4773 40.0029 58.0077 39.9755Z" fill="#1B1918"/>
<path fill-rule="evenodd" clip-rule="evenodd" d="M0 49.8824L8.69973 49.3456V50.4192L0 49.8824Z" fill="#1B1918"/>
<path fill-rule="evenodd" clip-rule="evenodd" d="M62.4531 49.3456L70.7745 49.8824L62.4531 50.4192V49.3456Z" fill="#1B1918"/>
<path fill-rule="evenodd" clip-rule="evenodd" d="M13.0438 49.9902V50.023C13.0416 50.1199 13.0313 50.2201 13.0133 50.3238C12.9953 50.4276 12.9705 50.5313 12.9379 50.635C12.9061 50.7387 12.8675 50.8413 12.8226 50.9426C12.7775 51.044 12.7271 51.1411 12.671 51.2338C12.615 51.3268 12.5549 51.4136 12.4907 51.4951C12.4265 51.5759 12.358 51.6478 12.2867 51.71L12.0295 51.5615C12.0696 51.4932 12.1061 51.4193 12.1388 51.3394C12.1718 51.2594 12.2016 51.1754 12.2279 51.0878C12.2543 51.0004 12.277 50.9105 12.2964 50.8181C12.315 50.7258 12.3309 50.6343 12.3434 50.5432C12.3565 50.4524 12.3662 50.3625 12.3724 50.2747C12.3786 50.1862 12.382 50.1025 12.382 50.023C12.382 49.9608 12.3814 49.8903 12.3808 49.8113C12.3801 49.7323 12.3758 49.652 12.367 49.5702C12.3586 49.4882 12.344 49.4085 12.3247 49.331C12.3053 49.2528 12.2764 49.1837 12.2375 49.1225C12.1989 49.0613 12.1491 49.0126 12.0889 48.9754C12.0282 48.9387 11.9534 48.9202 11.8635 48.9202C11.7834 48.9202 11.7155 48.9337 11.6582 48.961C11.6015 48.9881 11.5532 49.0241 11.5131 49.0695C11.4736 49.1152 11.4418 49.168 11.4184 49.2279C11.3948 49.2879 11.3761 49.351 11.363 49.4173C11.3499 49.4834 11.3409 49.5502 11.3366 49.6179C11.3325 49.6851 11.3312 49.7488 11.3312 49.8087V50.291H12.0758V50.5761H11.3312V51.1812H10.6445V49.9159C10.6445 49.7351 10.6735 49.5667 10.7311 49.411C10.7884 49.2556 10.87 49.1204 10.9758 49.0061C11.0808 48.8913 11.2081 48.8013 11.3561 48.7364C11.5041 48.6709 11.6691 48.6385 11.851 48.6385C11.9743 48.6385 12.0896 48.6561 12.1976 48.6913C12.3053 48.7263 12.4035 48.7746 12.4928 48.8365C12.5813 48.8981 12.6601 48.9714 12.7299 49.0557C12.7996 49.1407 12.8578 49.2331 12.9049 49.3333C12.951 49.4336 12.9864 49.5397 13.0114 49.6513C13.0348 49.763 13.0459 49.8762 13.0438 49.9902Z" fill="#1B1918"/>
<path fill-rule="evenodd" clip-rule="evenodd" d="M15.5461 49.933C15.5461 49.7981 15.5296 49.6699 15.4969 49.5484C15.4639 49.4269 15.4134 49.3202 15.3443 49.2279C15.2751 49.1355 15.1867 49.0625 15.0802 49.0082C14.9735 48.9539 14.8463 48.927 14.6969 48.927H14.5159V50.9391H14.6969C14.8438 50.9391 14.97 50.9117 15.0765 50.8567C15.1832 50.8021 15.2717 50.7285 15.3415 50.6353C15.4113 50.5428 15.4624 50.436 15.4963 50.315C15.5296 50.1941 15.5461 50.0668 15.5461 49.933ZM16.2431 49.933C16.2431 50.0539 16.2263 50.1687 16.1948 50.278C16.1622 50.3865 16.1166 50.4872 16.0585 50.5795C16.0005 50.6718 15.9311 50.7552 15.8504 50.829C15.7694 50.9037 15.681 50.9667 15.5835 51.0186C15.486 51.0704 15.3815 51.1105 15.2702 51.1389C15.159 51.167 15.045 51.1809 14.9273 51.1809H13.8301V48.6919H14.9273C15.045 48.6919 15.159 48.7057 15.2696 48.7334C15.3801 48.7611 15.4838 48.8005 15.5813 48.8517C15.6788 48.9032 15.7681 48.9657 15.8498 49.0393C15.9307 49.113 16.0005 49.1959 16.0585 49.2873C16.1166 49.3792 16.1622 49.4795 16.1948 49.588C16.2263 49.6972 16.2431 49.8121 16.2431 49.933Z" fill="#1B1918"/>
<path fill-rule="evenodd" clip-rule="evenodd" d="M18.5872 51.1811H17.9602L17.0303 48.6921H17.7298L18.4199 50.6954L19.0434 48.6921H19.4694L18.5872 51.1811Z" fill="#1B1918"/>
<path fill-rule="evenodd" clip-rule="evenodd" d="M22.0423 51.1811H20.2559V48.6921H22.0423V49.0102H20.9417V49.7793H21.792V50.0956H20.9417V50.8631H22.0423V51.1811Z" fill="#1B1918"/>
<path fill-rule="evenodd" clip-rule="evenodd" d="M23.1471 51.1811H22.8291V48.6921H23.2744L24.7871 50.4015V48.6921H25.1038V51.1811H24.6572L23.1471 49.4733V51.1811Z" fill="#1B1918"/>
<path fill-rule="evenodd" clip-rule="evenodd" d="M27.2541 51.1811H26.5683V49.0102H25.8906V48.6921H27.9317V49.0102H27.2541V51.1811Z" fill="#1B1918"/>
<path fill-rule="evenodd" clip-rule="evenodd" d="M29.5639 48.692C29.5334 48.7854 29.5059 48.8819 29.4832 48.9817C29.4602 49.0811 29.4409 49.1807 29.4257 49.2803C29.4112 49.3804 29.4001 49.4785 29.3926 49.5752C29.3849 49.672 29.3814 49.7637 29.3814 49.8502C29.3814 49.9133 29.3814 49.9846 29.382 50.0638C29.3829 50.1424 29.387 50.2228 29.396 50.3048C29.4041 50.3866 29.4187 50.4662 29.438 50.5442C29.4574 50.6217 29.4866 50.6912 29.5253 50.7525C29.5639 50.8136 29.6137 50.8624 29.6738 50.8993C29.7346 50.9362 29.81 50.9547 29.8999 50.9547C29.9787 50.9547 30.0472 50.9412 30.1048 50.9141C30.1612 50.8869 30.2097 50.8502 30.2499 50.8042C30.2892 50.7583 30.321 50.705 30.3446 50.6453C30.368 50.5854 30.3867 50.5225 30.4 50.4568C30.4131 50.3911 30.4221 50.3245 30.4262 50.2573C30.4303 50.1897 30.4324 50.1257 30.4324 50.0645V48.692H31.1182V49.9573C31.1182 50.1382 31.0892 50.3065 31.0317 50.462C30.9744 50.6176 30.8928 50.7527 30.7878 50.8671C30.6832 50.982 30.557 51.0717 30.4075 51.1368C30.2596 51.2021 30.0942 51.2347 29.9136 51.2347C29.7893 51.2347 29.6732 51.2171 29.566 51.1817C29.4589 51.1469 29.3607 51.0985 29.2714 51.0365C29.1824 50.9751 29.1029 50.9016 29.0329 50.8173C28.9631 50.7323 28.9051 50.6399 28.8579 50.5397C28.8117 50.4396 28.7756 50.3337 28.7523 50.2228C28.7273 50.1115 28.717 49.9988 28.719 49.8848V49.8502C28.7205 49.7576 28.7295 49.6627 28.7467 49.564C28.7639 49.4657 28.7875 49.3669 28.8167 49.2677C28.8463 49.1683 28.8815 49.0701 28.9229 48.9727C28.9644 48.8754 29.0108 48.7818 29.0612 48.692H29.5639Z" fill="#1B1918"/>
<path fill-rule="evenodd" clip-rule="evenodd" d="M33.3204 49.4214C33.3204 49.2544 33.2797 49.1318 33.1989 49.0531C33.1173 48.9748 32.9956 48.9357 32.833 48.9357H32.591V50.0161H32.833C32.9193 50.0161 32.9935 49.9994 33.0551 49.967C33.1165 49.9337 33.1669 49.8901 33.2064 49.8356C33.2458 49.7807 33.2743 49.7177 33.293 49.646C33.3114 49.5745 33.3204 49.5 33.3204 49.4214ZM32.591 51.181H31.9053V48.692H33.1289C33.2438 48.692 33.355 48.7055 33.4622 48.7328C33.5695 48.7596 33.6642 48.8021 33.7464 48.8608C33.8287 48.9187 33.8944 48.9937 33.9433 49.086C33.9925 49.1783 34.0168 49.29 34.0168 49.4214C34.0168 49.524 33.9953 49.6205 33.9524 49.7111C33.909 49.8015 33.8515 49.882 33.7795 49.953C33.7078 50.0237 33.6247 50.0825 33.5313 50.1293C33.4381 50.1757 33.3413 50.2068 33.241 50.2219C33.2859 50.2979 33.3329 50.3698 33.3821 50.4377C33.4313 50.5059 33.4802 50.5695 33.5307 50.6287C33.5805 50.688 33.6303 50.7427 33.6801 50.7933C33.7299 50.843 33.7767 50.8887 33.8218 50.9304C33.9277 51.0273 34.0327 51.1108 34.1364 51.181H33.2812C33.212 51.1153 33.1457 51.0365 33.0834 50.9442C33.0308 50.8658 32.9775 50.769 32.9237 50.6528C32.8704 50.5373 32.8289 50.4033 32.8 50.2511H32.591V51.181Z" fill="#1B1918"/>
<path fill-rule="evenodd" clip-rule="evenodd" d="M36.7095 51.1811H34.9229V48.6921H36.7095V49.0102H35.6089V49.7793H36.4592V50.0956H35.6089V50.8631H36.7095V51.1811Z" fill="#1B1918"/>
<path fill-rule="evenodd" clip-rule="evenodd" d="M41.6514 49.3116L41.3555 49.4361C41.3327 49.361 41.3016 49.2927 41.2627 49.2304C41.2241 49.1682 41.1786 49.1149 41.1245 49.0707C41.0713 49.026 41.0104 48.9914 40.942 48.967C40.8744 48.9421 40.8003 48.9296 40.7195 48.9296C40.633 48.9296 40.5535 48.9438 40.4816 48.9717C40.4097 49 40.3453 49.0391 40.2879 49.0885C40.2313 49.1381 40.1814 49.1956 40.1387 49.2615C40.0958 49.3273 40.0605 49.397 40.0316 49.4718C40.0023 49.5456 39.9809 49.6227 39.9672 49.7021C39.9534 49.7818 39.9465 49.8595 39.9465 49.9356C39.9465 50.0567 39.9609 50.1769 39.9893 50.2969C40.0176 50.4167 40.0627 50.5243 40.1241 50.62C40.1857 50.7158 40.2652 50.7933 40.3633 50.8524C40.4615 50.9119 40.5797 50.9415 40.7195 50.9415C40.7934 50.9415 40.8632 50.9292 40.9282 50.9042C40.9946 50.8797 41.054 50.8456 41.1073 50.8026C41.1612 50.759 41.2082 50.7083 41.2484 50.6495C41.2885 50.5906 41.3209 50.5275 41.3452 50.4592L41.6445 50.5787C41.6003 50.6882 41.5408 50.7839 41.4648 50.8661C41.3886 50.9488 41.3016 51.0169 41.2041 51.0712C41.1067 51.1255 41.003 51.1659 40.8915 51.1934C40.7803 51.2202 40.6682 51.2337 40.5548 51.2337C40.4331 51.2337 40.3156 51.2189 40.2036 51.1889C40.0909 51.1588 39.9865 51.1163 39.8896 51.0609C39.793 51.0055 39.7052 50.9389 39.6262 50.8603C39.5476 50.7819 39.4798 50.695 39.4237 50.5995C39.3676 50.5037 39.3249 50.3995 39.2944 50.2875C39.2639 50.1749 39.248 50.0577 39.248 49.9356C39.248 49.8136 39.2639 49.6964 39.2944 49.5836C39.3249 49.4718 39.3676 49.3672 39.4237 49.2712C39.4798 49.1746 39.5476 49.0876 39.6262 49.0091C39.7052 48.9307 39.793 48.8639 39.8896 48.8085C39.9865 48.7533 40.0909 48.7108 40.2036 48.6808C40.3156 48.6507 40.4331 48.6359 40.5548 48.6359C40.6723 48.6359 40.788 48.6496 40.8999 48.6771C41.0126 48.7048 41.117 48.7467 41.2138 48.8023C41.3106 48.8583 41.3969 48.929 41.4723 49.0132C41.5477 49.0984 41.6072 49.1976 41.6514 49.3116Z" fill="#1B1918"/>
<path fill-rule="evenodd" clip-rule="evenodd" d="M44.9598 49.9927V50.0256C44.9576 50.1224 44.9473 50.2227 44.9293 50.3264C44.9113 50.4301 44.8866 50.5338 44.8539 50.6375C44.8222 50.7412 44.7835 50.8439 44.7384 50.9452C44.6935 51.0464 44.6431 51.1436 44.587 51.2364C44.531 51.3293 44.4708 51.4159 44.4067 51.4977C44.3425 51.5784 44.2739 51.6503 44.2027 51.7126L43.9455 51.564C43.9856 51.4957 44.0221 51.4219 44.0548 51.342C44.0878 51.2619 44.1177 51.1778 44.1439 51.0904C44.17 51.003 44.193 50.913 44.2123 50.8207C44.231 50.7283 44.2469 50.6369 44.2593 50.5458C44.2725 50.455 44.2821 50.365 44.2884 50.2772C44.2946 50.1888 44.298 50.105 44.298 50.0256C44.298 49.9633 44.2973 49.8929 44.2967 49.8139C44.2961 49.7348 44.2918 49.6546 44.2828 49.5728C44.2746 49.4907 44.26 49.4109 44.2407 49.3336C44.2214 49.2554 44.1921 49.1863 44.1535 49.125C44.1148 49.0639 44.065 49.0151 44.0049 48.978C43.9442 48.9411 43.8694 48.9228 43.7795 48.9228C43.6992 48.9228 43.6315 48.9363 43.5742 48.9636C43.5175 48.9907 43.469 49.0267 43.4291 49.072C43.3895 49.1177 43.3577 49.1706 43.3341 49.2305C43.3108 49.2904 43.2921 49.3535 43.279 49.4199C43.2657 49.486 43.2568 49.5525 43.2526 49.6204C43.2485 49.6874 43.247 49.7514 43.247 49.8113V50.2935H43.9918V50.5787H43.247V51.1835H42.5605V49.9184C42.5605 49.7377 42.5895 49.5693 42.647 49.4136C42.7044 49.2582 42.786 49.1229 42.8918 49.0085C42.9968 48.8938 43.1242 48.8038 43.2721 48.7388C43.42 48.6735 43.5851 48.6411 43.767 48.6411C43.8902 48.6411 44.0056 48.6587 44.1136 48.6939C44.2214 48.7289 44.3195 48.7772 44.4088 48.839C44.4973 48.9007 44.5761 48.9739 44.6458 49.0583C44.7156 49.1433 44.7738 49.2356 44.8209 49.3359C44.867 49.4362 44.9023 49.5423 44.9273 49.6539C44.9508 49.7656 44.9617 49.8787 44.9598 49.9927Z" fill="#1B1918"/>
<path fill-rule="evenodd" clip-rule="evenodd" d="M46.4875 49.3272L46.294 51.1837H45.8701L46.294 48.6945H46.9209L47.5039 50.5941L48.0936 48.6945H48.7207L49.0733 51.1837H48.375L48.1698 49.3755L47.6836 51.1837H47.0564L46.4875 49.3272Z" fill="#1B1918"/>
<path fill-rule="evenodd" clip-rule="evenodd" d="M51.5197 49.4534C51.5197 49.2932 51.4789 49.1674 51.398 49.0755C51.3164 48.9842 51.194 48.9383 51.0301 48.9383H50.6692V50.0185H51.0301C51.118 50.0185 51.1927 50.0043 51.2541 49.9765C51.3157 49.9481 51.3662 49.9088 51.4057 49.858C51.445 49.807 51.4734 49.7476 51.492 49.6791C51.5107 49.6103 51.5197 49.5354 51.5197 49.4534ZM50.6692 51.1836H49.9834V48.6946H51.3276C51.4443 48.6946 51.5556 48.7103 51.6621 48.7412C51.7686 48.7723 51.8633 48.8193 51.9449 48.8818C52.0265 48.9449 52.0922 49.0237 52.1413 49.1191C52.1905 49.2138 52.2145 49.3254 52.2145 49.4534C52.2145 49.5339 52.203 49.6099 52.18 49.6806C52.1572 49.7519 52.1246 49.8163 52.0838 49.8751C52.0432 49.9339 51.9953 49.9868 51.9401 50.0342C51.8848 50.0815 51.824 50.1214 51.7583 50.1534C51.6926 50.1856 51.6234 50.2105 51.5502 50.2276C51.4768 50.2451 51.4029 50.2539 51.3276 50.2539H50.6692V51.1836Z" fill="#1B1918"/>
<path fill-rule="evenodd" clip-rule="evenodd" d="M53.8108 51.1835H53.125V48.6945H53.8108V51.1835Z" fill="#1B1918"/>
<path fill-rule="evenodd" clip-rule="evenodd" d="M55.0387 51.1836H54.7207V48.6946H55.1658L56.6787 50.4042V48.6946H56.9954V51.1836H56.5488L55.0387 49.4757V51.1836Z" fill="#1B1918"/>
<path fill-rule="evenodd" clip-rule="evenodd" d="M60.3096 49.3116L60.0137 49.4361C59.9909 49.361 59.9598 49.2927 59.9209 49.2304C59.8823 49.1682 59.8365 49.1149 59.7826 49.0707C59.7294 49.026 59.6686 48.9914 59.6001 48.967C59.5323 48.9421 59.4584 48.9296 59.3775 48.9296C59.2912 48.9296 59.2115 48.9442 59.1395 48.9727C59.0679 49.0015 59.0035 49.0406 58.9461 49.0894C58.8894 49.1383 58.8396 49.1956 58.7966 49.2615C58.7539 49.3273 58.7185 49.397 58.6902 49.4718C58.6618 49.5456 58.6412 49.6227 58.6266 49.7021C58.6122 49.7818 58.6045 49.8595 58.6045 49.9356C58.6045 50.0567 58.6191 50.1769 58.6475 50.2969C58.6758 50.4167 58.7207 50.5243 58.7823 50.62C58.8437 50.7158 58.9231 50.7933 59.0215 50.8524C59.1196 50.9119 59.2379 50.9415 59.3775 50.9415C59.4537 50.9415 59.5132 50.9247 59.5559 50.8904C59.5982 50.8565 59.6195 50.797 59.6195 50.7118V49.9475H60.3053V51.1835H60.1071L59.986 50.9883C59.8754 51.0723 59.7537 51.1345 59.6203 51.1739C59.4874 51.214 59.3513 51.2337 59.213 51.2337C59.0913 51.2337 58.9738 51.2189 58.8617 51.1889C58.749 51.1588 58.6447 51.1163 58.5478 51.0609C58.451 51.0055 58.3633 50.9389 58.2843 50.8603C58.2055 50.7819 58.1379 50.695 58.0818 50.5995C58.0258 50.5037 57.9829 50.3995 57.9524 50.2875C57.9221 50.1749 57.9062 50.0577 57.9062 49.9356C57.9062 49.8136 57.9221 49.6964 57.9524 49.5836C57.9829 49.4718 58.0258 49.3672 58.0818 49.2712C58.1379 49.1746 58.2055 49.0876 58.2843 49.0091C58.3633 48.9307 58.451 48.8639 58.5478 48.8085C58.6447 48.7533 58.749 48.7108 58.8617 48.6808C58.9738 48.6507 59.0913 48.6359 59.213 48.6359C59.3304 48.6359 59.4459 48.6496 59.558 48.6771C59.6705 48.7048 59.7751 48.7467 59.8718 48.8023C59.9688 48.8583 60.0551 48.929 60.1305 49.0132C60.2058 49.0984 60.2653 49.1976 60.3096 49.3116Z" fill="#1B1918"/>
<path fill-rule="evenodd" clip-rule="evenodd" d="M52.2724 21.4182C48.2821 17.2683 42.7675 14.5948 36.6389 14.3086L36.3754 11.1393C39.55 11.2405 42.704 11.9106 45.6364 13.1289C48.8262 14.449 51.7496 16.4074 54.1918 18.849C54.4016 19.0588 54.6062 19.2733 54.8089 19.4901L52.2724 21.4182ZM57.6788 36.9612H55.9864L42.0897 23.2917L28.4201 36.9612H25.0598L29.0877 33.1232L27.4962 31.6068L25.8259 33.243H22.7945L27.4773 28.7363L30.6096 31.7211L32.2769 30.1324L27.5026 25.5829L15.5618 36.9612H13.4064C13.6927 24.9989 23.5128 15.3555 35.5427 15.3555C47.5725 15.3555 57.3926 24.9989 57.6788 36.9612ZM44.854 33.1365L42.0721 30.3544L35.465 36.9612H32.355L42.0684 27.2479L47.9568 33.1365H44.854ZM16.1967 19.576C16.4247 19.3297 16.6562 19.0865 16.8934 18.849C19.3356 16.4074 22.2592 14.449 25.4491 13.1289C28.3053 11.9422 31.3723 11.2759 34.4636 11.1484L34.1827 14.3227C28.1184 14.6749 22.6711 17.364 18.7317 21.5022L16.1967 19.576ZM62.9838 36.9945C62.9199 33.5709 62.2183 30.157 60.9036 26.9932C59.8288 24.3966 58.347 21.9718 56.5378 19.8223L59.5825 15.8608L55.6675 18.8372C55.4329 18.584 55.195 18.3339 54.951 18.0899C52.4103 15.5494 49.3682 13.5116 46.0475 12.1371C42.9576 10.8531 39.629 10.1532 36.2857 10.0617L35.4493 0L34.5587 10.0707C31.2967 10.1886 28.0536 10.8839 25.0379 12.1371C21.7171 13.5116 18.6752 15.5494 16.1345 18.0899C15.8626 18.3617 15.5979 18.6403 15.3376 18.9235L11.5028 16.0093L14.4532 19.9346C12.6867 22.056 11.2378 24.442 10.1818 26.9932C8.8669 30.157 8.16544 33.5709 8.10165 36.9945L0.0849609 37.498L8.63202 38.0348L9.16856 38.0685L9.16877 37.498C9.17027 34.0439 9.84857 30.5929 11.1734 27.4044C12.1557 25.0316 13.4913 22.8062 15.116 20.8167L17.0839 23.4349C14.1011 27.3404 12.3264 32.2155 12.3264 37.498V38.0348H58.7588V37.498C58.7588 32.1449 56.9367 27.2098 53.8815 23.2784L55.8679 20.6936C57.5384 22.7145 58.9093 24.9824 59.9119 27.4044C61.2369 30.5929 61.9152 34.0439 61.9164 37.498L61.9167 38.0685L62.4532 38.0348L71.0003 37.498L62.9838 36.9945Z" fill="#1B1918"/>
</svg>
