<svg width="18" height="19" viewBox="0 0 18 19" fill="none" xmlns="http://www.w3.org/2000/svg">
<path d="M3.62 7.92818C5.06 10.7582 7.38 13.0682 10.21 14.5182L12.41 12.3182C12.68 12.0482 13.08 11.9582 13.43 12.0782C14.55 12.4482 15.76 12.6482 17 12.6482C17.55 12.6482 18 13.0982 18 13.6482V17.1382C18 17.6882 17.55 18.1382 17 18.1382C7.61 18.1382 0 10.5282 0 1.13818C0 0.588184 0.45 0.138184 1 0.138184H4.5C5.05 0.138184 5.5 0.588184 5.5 1.13818C5.5 2.38818 5.7 3.58818 6.07 4.70818C6.18 5.05818 6.1 5.44818 5.82 5.72818L3.62 7.92818Z" fill="#25294A"/>
</svg>
