<svg width="44" height="38" viewBox="0 0 44 38" fill="none" xmlns="http://www.w3.org/2000/svg">
<g opacity="0.05">
<path d="M26.3235 7.54527C25.2232 7.09333 24.7617 5.80703 25.2586 4.76409L26.9979 1.18333C27.4948 0.1755 28.7017 -0.276789 29.7665 0.1755C32.7836 1.42703 35.3747 3.06097 37.4334 5.04256C39.9536 7.37145 41.6573 10.0483 42.5802 13.0033C43.5031 15.9934 44 20.0606 44 25.2405V35.9133C44 37.0605 43.0416 37.9992 41.8703 37.9992H27.9208C26.7494 37.9992 25.7911 37.0605 25.7911 35.9133V22.2507C25.7911 21.1032 26.7494 20.1649 27.9208 20.1649H34.5938C34.5228 16.6533 33.671 13.8377 32.1092 11.7167C30.8314 10.0139 28.9146 8.62332 26.3235 7.54527Z" fill="#3C42B1"/>
<path d="M1.26427 7.54575C0.163921 7.09381 -0.297159 5.80751 0.199415 4.76457L1.93867 1.21892C2.4356 0.210745 3.64243 -0.241197 4.70728 0.210745C7.68886 1.46227 10.2449 3.09622 12.3387 5.04304C14.8592 7.40704 16.5981 10.0839 17.5213 13.0389C18.4442 15.9588 18.9053 20.0266 18.9053 25.2413V35.9141C18.9053 37.0613 17.9469 38 16.7756 38H2.82604C1.65471 38 0.696346 37.0613 0.696346 35.9141V22.2516C0.696346 21.104 1.65471 20.1657 2.82604 20.1657H9.5346C9.46361 16.6541 8.61137 13.8385 7.04995 11.7175C5.77213 10.0144 3.8554 8.6238 1.26427 7.54575Z" fill="#3C42B1"/>
</g>
</svg>
