<svg width="41" height="40" viewBox="0 0 41 40" fill="none" xmlns="http://www.w3.org/2000/svg">
<circle opacity="0.2" cx="27.3415" cy="12.6667" r="12.6667" fill="#007B8C"/>
<path d="M16.5002 22C16.5002 20.35 15.1502 19 13.5002 19C11.8502 19 10.5002 20.35 10.5002 22C10.5002 23.65 11.8502 25 13.5002 25C15.1502 25 16.5002 23.65 16.5002 22ZM13.5002 23C12.9502 23 12.5002 22.55 12.5002 22C12.5002 21.45 12.9502 21 13.5002 21C14.0502 21 14.5002 21.45 14.5002 22C14.5002 22.55 14.0502 23 13.5002 23ZM20.0002 25C21.1102 25 22.0002 24.11 22.0002 23C22.0002 21.89 21.1102 21 20.0002 21C18.8902 21 17.9902 21.89 18.0002 23C18.0002 24.11 18.8902 25 20.0002 25ZM15.9902 14.01C10.4702 14.01 5.99023 18.49 5.99023 24.01C5.99023 29.53 10.4702 34.01 15.9902 34.01C21.5102 34.01 25.9902 29.53 25.9902 24.01C25.9902 18.49 21.5102 14.01 15.9902 14.01ZM9.84023 29.12C10.5202 28.58 12.1102 28.01 13.5002 28.01C13.5702 28.01 13.6502 28.02 13.7302 28.02C13.9702 27.38 14.4002 26.73 15.0302 26.16C14.4702 26.06 13.9402 26 13.5002 26C12.2002 26 10.1102 26.45 8.77023 27.43C8.27023 26.39 7.99023 25.23 7.99023 24C7.99023 19.59 11.5802 16 15.9902 16C20.4002 16 23.9902 19.59 23.9902 24C23.9902 25.2 23.7202 26.34 23.2402 27.37C22.2402 26.78 20.8802 26.5 20.0002 26.5C18.4802 26.5 15.5002 27.31 15.5002 29.2V31.98C13.2302 31.85 11.2102 30.77 9.84023 29.12Z" fill="#007B8C"/>
</svg>
