<svg width="42" height="40" viewBox="0 0 42 40" fill="none" xmlns="http://www.w3.org/2000/svg">
<circle cx="29.179" cy="12.2581" r="12.2581" fill="#007B8C"/>
<path d="M5.30818 16.7742H2.72754V34.8387C2.72754 36.2581 3.88883 37.4193 5.30818 37.4193H23.3727V34.8387H5.30818V16.7742ZM25.9533 11.6129H10.4695C9.05012 11.6129 7.88883 12.7742 7.88883 14.1935V29.6774C7.88883 31.0968 9.05012 32.2581 10.4695 32.2581H25.9533C27.3727 32.2581 28.534 31.0968 28.534 29.6774V14.1935C28.534 12.7742 27.3727 11.6129 25.9533 11.6129ZM22.0824 14.1935V20.6452L20.7921 19.6774L19.5017 20.6452V14.1935H22.0824ZM25.9533 29.6774H10.4695V14.1935H16.9211V25.8064L20.7921 22.9032L24.663 25.8064V14.1935H25.9533V29.6774Z" fill="#28447B"/>
</svg>
