<svg width="38" height="40" viewBox="0 0 38 40" fill="none" xmlns="http://www.w3.org/2000/svg">
<circle opacity="0.2" cx="24.6667" cy="12.6667" r="12.6667" fill="#007B8C"/>
<g clip-path="url(#clip0)">
<path d="M7 18C5.89 18 5 18.89 5 20V27H7C7 27.7956 7.31607 28.5587 7.87868 29.1213C8.44129 29.6839 9.20435 30 10 30C10.7956 30 11.5587 29.6839 12.1213 29.1213C12.6839 28.5587 13 27.7956 13 27H19C19 27.7956 19.3161 28.5587 19.8787 29.1213C20.4413 29.6839 21.2044 30 22 30C22.7956 30 23.5587 29.6839 24.1213 29.1213C24.6839 28.5587 25 27.7956 25 27H27V20C27 18.89 26.11 18 25 18H7ZM6.5 19.5H10.5V22H6.5V19.5ZM12 19.5H16V22H12V19.5ZM17.5 19.5H21.5V22H17.5V19.5ZM23 19.5H25.5V25L23 23V19.5ZM10 25.5C10.3978 25.5 10.7794 25.658 11.0607 25.9393C11.342 26.2206 11.5 26.6022 11.5 27C11.5 27.3978 11.342 27.7794 11.0607 28.0607C10.7794 28.342 10.3978 28.5 10 28.5C9.60218 28.5 9.22064 28.342 8.93934 28.0607C8.65804 27.7794 8.5 27.3978 8.5 27C8.5 26.6022 8.65804 26.2206 8.93934 25.9393C9.22064 25.658 9.60218 25.5 10 25.5ZM22 25.5C22.3978 25.5 22.7794 25.658 23.0607 25.9393C23.342 26.2206 23.5 26.6022 23.5 27C23.5 27.3978 23.342 27.7794 23.0607 28.0607C22.7794 28.342 22.3978 28.5 22 28.5C21.6022 28.5 21.2206 28.342 20.9393 28.0607C20.658 27.7794 20.5 27.3978 20.5 27C20.5 26.6022 20.658 26.2206 20.9393 25.9393C21.2206 25.658 21.6022 25.5 22 25.5Z" fill="#007B8C"/>
</g>
<defs>
<clipPath id="clip0">
<rect width="32" height="32" fill="white" transform="translate(0 8)"/>
</clipPath>
</defs>
</svg>
