<svg width="38" height="40" viewBox="0 0 38 40" fill="none" xmlns="http://www.w3.org/2000/svg">
<circle cx="25.2301" cy="12.6667" r="12.6667" fill="#FFA048"/>
<path d="M12.5638 36C12.5638 36.7333 13.1638 37.3333 13.8971 37.3333H19.2305C19.9638 37.3333 20.5638 36.7333 20.5638 36V34.6667H12.5638V36ZM16.5638 10.6667C11.4171 10.6667 7.23047 14.8533 7.23047 20C7.23047 23.1733 8.81714 25.96 11.2305 27.6533V30.6667C11.2305 31.4 11.8305 32 12.5638 32H20.5638C21.2971 32 21.8971 31.4 21.8971 30.6667V27.6533C24.3105 25.96 25.8971 23.1733 25.8971 20C25.8971 14.8533 21.7105 10.6667 16.5638 10.6667ZM20.3638 25.4667L19.2305 26.2667V29.3333H13.8971V26.2667L12.7638 25.4667C10.9638 24.2133 9.89714 22.1733 9.89714 20C9.89714 16.32 12.8838 13.3333 16.5638 13.3333C20.2438 13.3333 23.2305 16.32 23.2305 20C23.2305 22.1733 22.1638 24.2133 20.3638 25.4667Z" fill="#28447B"/>
</svg>
