<svg width="38" height="40" viewBox="0 0 38 40" fill="none" xmlns="http://www.w3.org/2000/svg">
<circle opacity="0.2" cx="25.2301" cy="12.6667" r="12.6667" fill="#FFA048"/>
<path d="M23.92 18.01C23.72 17.42 23.16 17 22.5 17H11.5C10.84 17 10.29 17.42 10.08 18.01L8 24V32C8 32.55 8.45 33 9 33H10C10.55 33 11 32.55 11 32V31H23V32C23 32.55 23.45 33 24 33H25C25.55 33 26 32.55 26 32V24L23.92 18.01ZM11.85 19H22.14L23.22 22.11H10.77L11.85 19ZM24 29H10V24H24V29Z" fill="#FFA048"/>
<path d="M12.5 28C13.3284 28 14 27.3284 14 26.5C14 25.6716 13.3284 25 12.5 25C11.6716 25 11 25.6716 11 26.5C11 27.3284 11.6716 28 12.5 28Z" fill="#FFA048"/>
<path d="M21.5 28C22.3284 28 23 27.3284 23 26.5C23 25.6716 22.3284 25 21.5 25C20.6716 25 20 25.6716 20 26.5C20 27.3284 20.6716 28 21.5 28Z" fill="#FFA048"/>
</svg>
